<?xml version="1.0" encoding="utf-8" standalone="no"?>
<!DOCTYPE svg PUBLIC "-//W3C//DTD SVG 1.1//EN"
  "http://www.w3.org/Graphics/SVG/1.1/DTD/svg11.dtd">
<!-- Created with matplotlib (https://matplotlib.org/) -->
<svg height="720pt" version="1.1" viewBox="0 0 576 720" width="576pt" xmlns="http://www.w3.org/2000/svg" xmlns:xlink="http://www.w3.org/1999/xlink">
 <metadata>
  <rdf:RDF xmlns:cc="http://creativecommons.org/ns#" xmlns:dc="http://purl.org/dc/elements/1.1/" xmlns:rdf="http://www.w3.org/1999/02/22-rdf-syntax-ns#">
   <cc:Work>
    <dc:type rdf:resource="http://purl.org/dc/dcmitype/StillImage"/>
    <dc:date>2021-01-18T19:37:51.410554</dc:date>
    <dc:format>image/svg+xml</dc:format>
    <dc:creator>
     <cc:Agent>
      <dc:title>Matplotlib v3.3.3, https://matplotlib.org/</dc:title>
     </cc:Agent>
    </dc:creator>
   </cc:Work>
  </rdf:RDF>
 </metadata>
 <defs>
  <style type="text/css">*{stroke-linecap:butt;stroke-linejoin:round;}</style>
 </defs>
 <g id="figure_1">
  <g id="patch_1">
   <path d="M 0 720 
L 576 720 
L 576 0 
L 0 0 
z
" style="fill:#ffffff;"/>
  </g>
  <g id="axes_1">
   <g id="patch_2">
    <path d="M 72 206.921739 
L 518.4 206.921739 
L 518.4 86.4 
L 72 86.4 
z
" style="fill:#ffffff;"/>
   </g>
   <g id="PolyCollection_1">
    <defs>
     <path d="M 72 -617.403314 
L 72 -513.078261 
L 76.509091 -513.078261 
L 81.018182 -513.078261 
L 85.527273 -513.078261 
L 90.036364 -513.078261 
L 94.545455 -513.078261 
L 99.054545 -513.078261 
L 103.563636 -513.078261 
L 108.072727 -513.078261 
L 112.581818 -513.078261 
L 117.090909 -513.078261 
L 121.6 -513.078261 
L 126.109091 -513.078261 
L 130.618182 -513.078261 
L 135.127273 -513.078261 
L 139.636364 -513.078261 
L 144.145455 -513.078261 
L 148.654545 -513.078261 
L 153.163636 -513.078261 
L 157.672727 -513.078261 
L 162.181818 -513.078261 
L 166.690909 -513.078261 
L 171.2 -513.078261 
L 175.709091 -513.078261 
L 180.218182 -513.078261 
L 184.727273 -513.078261 
L 189.236364 -513.078261 
L 193.745455 -513.078261 
L 198.254545 -513.078261 
L 202.763636 -513.078261 
L 207.272727 -513.078261 
L 211.781818 -513.078261 
L 216.290909 -513.078261 
L 220.8 -513.078261 
L 225.309091 -513.078261 
L 229.818182 -513.078261 
L 234.327273 -513.078261 
L 238.836364 -513.078261 
L 243.345455 -513.078261 
L 247.854545 -513.078261 
L 252.363636 -513.078261 
L 256.872727 -513.078261 
L 261.381818 -513.078261 
L 265.890909 -513.078261 
L 270.4 -513.078261 
L 274.909091 -513.078261 
L 279.418182 -513.078261 
L 283.927273 -513.078261 
L 288.436364 -513.078261 
L 292.945455 -513.078261 
L 297.454545 -513.078261 
L 301.963636 -513.078261 
L 306.472727 -513.078261 
L 310.981818 -513.078261 
L 315.490909 -513.078261 
L 320 -513.078261 
L 324.509091 -513.078261 
L 329.018182 -513.078261 
L 333.527273 -513.078261 
L 338.036364 -513.078261 
L 342.545455 -513.078261 
L 347.054545 -513.078261 
L 351.563636 -513.078261 
L 356.072727 -513.078261 
L 360.581818 -513.078261 
L 365.090909 -513.078261 
L 369.6 -513.078261 
L 374.109091 -513.078261 
L 378.618182 -513.078261 
L 383.127273 -513.078261 
L 387.636364 -513.078261 
L 392.145455 -513.078261 
L 396.654545 -513.078261 
L 401.163636 -513.078261 
L 405.672727 -513.078261 
L 410.181818 -513.078261 
L 414.690909 -513.078261 
L 419.2 -513.078261 
L 423.709091 -513.078261 
L 428.218182 -513.078261 
L 432.727273 -513.078261 
L 437.236364 -513.078261 
L 441.745455 -513.078261 
L 446.254545 -513.078261 
L 450.763636 -513.078261 
L 455.272727 -513.078261 
L 459.781818 -513.078261 
L 464.290909 -513.078261 
L 468.8 -513.078261 
L 473.309091 -513.078261 
L 477.818182 -513.078261 
L 482.327273 -513.078261 
L 486.836364 -513.078261 
L 491.345455 -513.078261 
L 495.854545 -513.078261 
L 500.363636 -513.078261 
L 504.872727 -513.078261 
L 509.381818 -513.078261 
L 513.890909 -513.078261 
L 518.4 -513.078261 
L 518.4 -580.864678 
L 518.4 -580.864678 
L 513.890909 -462.2076 
L 509.381818 -541.041971 
L 504.872727 -513.975264 
L 500.363636 -478.72629 
L 495.854545 -582.183245 
L 491.345455 -413.510483 
L 486.836364 -631.269184 
L 482.327273 -396.144176 
L 477.818182 -603.192973 
L 473.309091 -474.822925 
L 468.8 -484.595117 
L 464.290909 -602.838495 
L 459.781818 -393.033775 
L 455.272727 -613.051965 
L 450.763636 -482.487027 
L 446.254545 -454.773511 
L 441.745455 -629.416742 
L 437.236364 -412.09141 
L 432.727273 -526.531206 
L 428.218182 -600.348964 
L 423.709091 -394.971774 
L 419.2 -556.511012 
L 414.690909 -588.196374 
L 410.181818 -394.584834 
L 405.672727 -544.700134 
L 401.163636 -607.194089 
L 396.654545 -408.903152 
L 392.145455 -489.405652 
L 387.636364 -633.095822 
L 383.127273 -472.80578 
L 378.618182 -410.324898 
L 374.109091 -592.467984 
L 369.6 -592.77288 
L 365.090909 -415.926519 
L 360.581818 -446.619355 
L 356.072727 -614.227707 
L 351.563636 -581.692386 
L 347.054545 -419.096278 
L 342.545455 -427.698102 
L 338.036364 -584.349699 
L 333.527273 -622.0204 
L 329.018182 -487.818797 
L 324.509091 -392.770853 
L 320 -469.445923 
L 315.490909 -603.588548 
L 310.981818 -621.138333 
L 306.472727 -509.70844 
L 301.963636 -404.181889 
L 297.454545 -414.790251 
L 292.945455 -521.071491 
L 288.436364 -617.403314 
L 283.927273 -623.34174 
L 279.418182 -543.505136 
L 274.909091 -444.55205 
L 270.4 -393.839084 
L 265.890909 -415.976884 
L 261.381818 -489.510652 
L 256.872727 -571.196099 
L 252.363636 -623.725714 
L 247.854545 -630.891891 
L 243.345455 -597.702139 
L 238.836364 -541.540096 
L 234.327273 -481.908994 
L 229.818182 -433.463848 
L 225.309091 -403.488156 
L 220.8 -392.702386 
L 216.290909 -397.616523 
L 211.781818 -412.985279 
L 207.272727 -433.608074 
L 202.763636 -455.29706 
L 198.254545 -475.166153 
L 193.745455 -491.501306 
L 189.236364 -503.446804 
L 184.727273 -510.667987 
L 180.218182 -513.078261 
L 175.709091 -510.667987 
L 171.2 -503.446804 
L 166.690909 -491.501306 
L 162.181818 -475.166153 
L 157.672727 -455.29706 
L 153.163636 -433.608074 
L 148.654545 -412.985279 
L 144.145455 -397.616523 
L 139.636364 -392.702386 
L 135.127273 -403.488156 
L 130.618182 -433.463848 
L 126.109091 -481.908994 
L 121.6 -541.540096 
L 117.090909 -597.702139 
L 112.581818 -630.891891 
L 108.072727 -623.725714 
L 103.563636 -571.196099 
L 99.054545 -489.510652 
L 94.545455 -415.976884 
L 90.036364 -393.839084 
L 85.527273 -444.55205 
L 81.018182 -543.505136 
L 76.509091 -623.34174 
L 72 -617.403314 
z
" id="m577888f11c" style="stroke:#0000ff;stroke-opacity:0.4;"/>
    </defs>
    <g clip-path="url(#p210783f934)">
     <use style="fill:#0000ff;fill-opacity:0.4;stroke:#0000ff;stroke-opacity:0.4;" x="0" xlink:href="#m577888f11c" y="720"/>
    </g>
   </g>
   <g id="matplotlib.axis_1">
    <g id="xtick_1">
     <g id="line2d_1">
      <path clip-path="url(#p210783f934)" d="M 180.218182 206.921739 
L 180.218182 86.4 
" style="fill:none;stroke:#b0b0b0;stroke-linecap:square;stroke-width:0.8;"/>
     </g>
     <g id="line2d_2">
      <defs>
       <path d="M 0 0 
L 0 3.5 
" id="m3ad975fd98" style="stroke:#000000;stroke-width:0.8;"/>
      </defs>
      <g>
       <use style="stroke:#000000;stroke-width:0.8;" x="180.218182" xlink:href="#m3ad975fd98" y="206.921739"/>
      </g>
     </g>
    </g>
    <g id="xtick_2">
     <g id="line2d_3">
      <path clip-path="url(#p210783f934)" d="M 292.945455 206.921739 
L 292.945455 86.4 
" style="fill:none;stroke:#b0b0b0;stroke-linecap:square;stroke-width:0.8;"/>
     </g>
     <g id="line2d_4">
      <g>
       <use style="stroke:#000000;stroke-width:0.8;" x="292.945455" xlink:href="#m3ad975fd98" y="206.921739"/>
      </g>
     </g>
    </g>
    <g id="xtick_3">
     <g id="line2d_5">
      <path clip-path="url(#p210783f934)" d="M 405.672727 206.921739 
L 405.672727 86.4 
" style="fill:none;stroke:#b0b0b0;stroke-linecap:square;stroke-width:0.8;"/>
     </g>
     <g id="line2d_6">
      <g>
       <use style="stroke:#000000;stroke-width:0.8;" x="405.672727" xlink:href="#m3ad975fd98" y="206.921739"/>
      </g>
     </g>
    </g>
    <g id="xtick_4">
     <g id="line2d_7">
      <path clip-path="url(#p210783f934)" d="M 518.4 206.921739 
L 518.4 86.4 
" style="fill:none;stroke:#b0b0b0;stroke-linecap:square;stroke-width:0.8;"/>
     </g>
     <g id="line2d_8">
      <g>
       <use style="stroke:#000000;stroke-width:0.8;" x="518.4" xlink:href="#m3ad975fd98" y="206.921739"/>
      </g>
     </g>
    </g>
   </g>
   <g id="matplotlib.axis_2">
    <g id="ytick_1">
     <g id="line2d_9">
      <path clip-path="url(#p210783f934)" d="M 72 206.921739 
L 518.4 206.921739 
" style="fill:none;stroke:#b0b0b0;stroke-linecap:square;stroke-width:0.8;"/>
     </g>
     <g id="line2d_10">
      <defs>
       <path d="M 0 0 
L -3.5 0 
" id="mde6243a6fc" style="stroke:#000000;stroke-width:0.8;"/>
      </defs>
      <g>
       <use style="stroke:#000000;stroke-width:0.8;" x="72" xlink:href="#mde6243a6fc" y="206.921739"/>
      </g>
     </g>
     <g id="text_1">
      <!-- 0.00 -->
      <g transform="translate(29.375 213.000489)scale(0.16 -0.16)">
       <defs>
        <path d="M 31.78125 66.40625 
Q 24.171875 66.40625 20.328125 58.90625 
Q 16.5 51.421875 16.5 36.375 
Q 16.5 21.390625 20.328125 13.890625 
Q 24.171875 6.390625 31.78125 6.390625 
Q 39.453125 6.390625 43.28125 13.890625 
Q 47.125 21.390625 47.125 36.375 
Q 47.125 51.421875 43.28125 58.90625 
Q 39.453125 66.40625 31.78125 66.40625 
z
M 31.78125 74.21875 
Q 44.046875 74.21875 50.515625 64.515625 
Q 56.984375 54.828125 56.984375 36.375 
Q 56.984375 17.96875 50.515625 8.265625 
Q 44.046875 -1.421875 31.78125 -1.421875 
Q 19.53125 -1.421875 13.0625 8.265625 
Q 6.59375 17.96875 6.59375 36.375 
Q 6.59375 54.828125 13.0625 64.515625 
Q 19.53125 74.21875 31.78125 74.21875 
z
" id="DejaVuSans-48"/>
        <path d="M 10.6875 12.40625 
L 21 12.40625 
L 21 0 
L 10.6875 0 
z
" id="DejaVuSans-46"/>
       </defs>
       <use xlink:href="#DejaVuSans-48"/>
       <use x="63.623047" xlink:href="#DejaVuSans-46"/>
       <use x="95.410156" xlink:href="#DejaVuSans-48"/>
       <use x="159.033203" xlink:href="#DejaVuSans-48"/>
      </g>
     </g>
    </g>
    <g id="ytick_2">
     <g id="line2d_11">
      <path clip-path="url(#p210783f934)" d="M 72 176.791304 
L 518.4 176.791304 
" style="fill:none;stroke:#b0b0b0;stroke-linecap:square;stroke-width:0.8;"/>
     </g>
     <g id="line2d_12">
      <g>
       <use style="stroke:#000000;stroke-width:0.8;" x="72" xlink:href="#mde6243a6fc" y="176.791304"/>
      </g>
     </g>
     <g id="text_2">
      <!-- 0.25 -->
      <g transform="translate(29.375 182.870054)scale(0.16 -0.16)">
       <defs>
        <path d="M 19.1875 8.296875 
L 53.609375 8.296875 
L 53.609375 0 
L 7.328125 0 
L 7.328125 8.296875 
Q 12.9375 14.109375 22.625 23.890625 
Q 32.328125 33.6875 34.8125 36.53125 
Q 39.546875 41.84375 41.421875 45.53125 
Q 43.3125 49.21875 43.3125 52.78125 
Q 43.3125 58.59375 39.234375 62.25 
Q 35.15625 65.921875 28.609375 65.921875 
Q 23.96875 65.921875 18.8125 64.3125 
Q 13.671875 62.703125 7.8125 59.421875 
L 7.8125 69.390625 
Q 13.765625 71.78125 18.9375 73 
Q 24.125 74.21875 28.421875 74.21875 
Q 39.75 74.21875 46.484375 68.546875 
Q 53.21875 62.890625 53.21875 53.421875 
Q 53.21875 48.921875 51.53125 44.890625 
Q 49.859375 40.875 45.40625 35.40625 
Q 44.1875 33.984375 37.640625 27.21875 
Q 31.109375 20.453125 19.1875 8.296875 
z
" id="DejaVuSans-50"/>
        <path d="M 10.796875 72.90625 
L 49.515625 72.90625 
L 49.515625 64.59375 
L 19.828125 64.59375 
L 19.828125 46.734375 
Q 21.96875 47.46875 24.109375 47.828125 
Q 26.265625 48.1875 28.421875 48.1875 
Q 40.625 48.1875 47.75 41.5 
Q 54.890625 34.8125 54.890625 23.390625 
Q 54.890625 11.625 47.5625 5.09375 
Q 40.234375 -1.421875 26.90625 -1.421875 
Q 22.3125 -1.421875 17.546875 -0.640625 
Q 12.796875 0.140625 7.71875 1.703125 
L 7.71875 11.625 
Q 12.109375 9.234375 16.796875 8.0625 
Q 21.484375 6.890625 26.703125 6.890625 
Q 35.15625 6.890625 40.078125 11.328125 
Q 45.015625 15.765625 45.015625 23.390625 
Q 45.015625 31 40.078125 35.4375 
Q 35.15625 39.890625 26.703125 39.890625 
Q 22.75 39.890625 18.8125 39.015625 
Q 14.890625 38.140625 10.796875 36.28125 
z
" id="DejaVuSans-53"/>
       </defs>
       <use xlink:href="#DejaVuSans-48"/>
       <use x="63.623047" xlink:href="#DejaVuSans-46"/>
       <use x="95.410156" xlink:href="#DejaVuSans-50"/>
       <use x="159.033203" xlink:href="#DejaVuSans-53"/>
      </g>
     </g>
    </g>
    <g id="ytick_3">
     <g id="line2d_13">
      <path clip-path="url(#p210783f934)" d="M 72 146.66087 
L 518.4 146.66087 
" style="fill:none;stroke:#b0b0b0;stroke-linecap:square;stroke-width:0.8;"/>
     </g>
     <g id="line2d_14">
      <g>
       <use style="stroke:#000000;stroke-width:0.8;" x="72" xlink:href="#mde6243a6fc" y="146.66087"/>
      </g>
     </g>
     <g id="text_3">
      <!-- 0.50 -->
      <g transform="translate(29.375 152.73962)scale(0.16 -0.16)">
       <use xlink:href="#DejaVuSans-48"/>
       <use x="63.623047" xlink:href="#DejaVuSans-46"/>
       <use x="95.410156" xlink:href="#DejaVuSans-53"/>
       <use x="159.033203" xlink:href="#DejaVuSans-48"/>
      </g>
     </g>
    </g>
    <g id="ytick_4">
     <g id="line2d_15">
      <path clip-path="url(#p210783f934)" d="M 72 116.530435 
L 518.4 116.530435 
" style="fill:none;stroke:#b0b0b0;stroke-linecap:square;stroke-width:0.8;"/>
     </g>
     <g id="line2d_16">
      <g>
       <use style="stroke:#000000;stroke-width:0.8;" x="72" xlink:href="#mde6243a6fc" y="116.530435"/>
      </g>
     </g>
     <g id="text_4">
      <!-- 0.75 -->
      <g transform="translate(29.375 122.609185)scale(0.16 -0.16)">
       <defs>
        <path d="M 8.203125 72.90625 
L 55.078125 72.90625 
L 55.078125 68.703125 
L 28.609375 0 
L 18.3125 0 
L 43.21875 64.59375 
L 8.203125 64.59375 
z
" id="DejaVuSans-55"/>
       </defs>
       <use xlink:href="#DejaVuSans-48"/>
       <use x="63.623047" xlink:href="#DejaVuSans-46"/>
       <use x="95.410156" xlink:href="#DejaVuSans-55"/>
       <use x="159.033203" xlink:href="#DejaVuSans-53"/>
      </g>
     </g>
    </g>
    <g id="ytick_5">
     <g id="line2d_17">
      <path clip-path="url(#p210783f934)" d="M 72 86.4 
L 518.4 86.4 
" style="fill:none;stroke:#b0b0b0;stroke-linecap:square;stroke-width:0.8;"/>
     </g>
     <g id="line2d_18">
      <g>
       <use style="stroke:#000000;stroke-width:0.8;" x="72" xlink:href="#mde6243a6fc" y="86.4"/>
      </g>
     </g>
     <g id="text_5">
      <!-- 1.00 -->
      <g transform="translate(29.375 92.47875)scale(0.16 -0.16)">
       <defs>
        <path d="M 12.40625 8.296875 
L 28.515625 8.296875 
L 28.515625 63.921875 
L 10.984375 60.40625 
L 10.984375 69.390625 
L 28.421875 72.90625 
L 38.28125 72.90625 
L 38.28125 8.296875 
L 54.390625 8.296875 
L 54.390625 0 
L 12.40625 0 
z
" id="DejaVuSans-49"/>
       </defs>
       <use xlink:href="#DejaVuSans-49"/>
       <use x="63.623047" xlink:href="#DejaVuSans-46"/>
       <use x="95.410156" xlink:href="#DejaVuSans-48"/>
       <use x="159.033203" xlink:href="#DejaVuSans-48"/>
      </g>
     </g>
    </g>
    <g id="text_6">
     <!-- Height -->
     <g transform="translate(22.0475 173.10712)rotate(-90)scale(0.16 -0.16)">
      <defs>
       <path d="M 9.8125 72.90625 
L 19.671875 72.90625 
L 19.671875 43.015625 
L 55.515625 43.015625 
L 55.515625 72.90625 
L 65.375 72.90625 
L 65.375 0 
L 55.515625 0 
L 55.515625 34.71875 
L 19.671875 34.71875 
L 19.671875 0 
L 9.8125 0 
z
" id="DejaVuSans-72"/>
       <path d="M 56.203125 29.59375 
L 56.203125 25.203125 
L 14.890625 25.203125 
Q 15.484375 15.921875 20.484375 11.0625 
Q 25.484375 6.203125 34.421875 6.203125 
Q 39.59375 6.203125 44.453125 7.46875 
Q 49.3125 8.734375 54.109375 11.28125 
L 54.109375 2.78125 
Q 49.265625 0.734375 44.1875 -0.34375 
Q 39.109375 -1.421875 33.890625 -1.421875 
Q 20.796875 -1.421875 13.15625 6.1875 
Q 5.515625 13.8125 5.515625 26.8125 
Q 5.515625 40.234375 12.765625 48.109375 
Q 20.015625 56 32.328125 56 
Q 43.359375 56 49.78125 48.890625 
Q 56.203125 41.796875 56.203125 29.59375 
z
M 47.21875 32.234375 
Q 47.125 39.59375 43.09375 43.984375 
Q 39.0625 48.390625 32.421875 48.390625 
Q 24.90625 48.390625 20.390625 44.140625 
Q 15.875 39.890625 15.1875 32.171875 
z
" id="DejaVuSans-101"/>
       <path d="M 9.421875 54.6875 
L 18.40625 54.6875 
L 18.40625 0 
L 9.421875 0 
z
M 9.421875 75.984375 
L 18.40625 75.984375 
L 18.40625 64.59375 
L 9.421875 64.59375 
z
" id="DejaVuSans-105"/>
       <path d="M 45.40625 27.984375 
Q 45.40625 37.75 41.375 43.109375 
Q 37.359375 48.484375 30.078125 48.484375 
Q 22.859375 48.484375 18.828125 43.109375 
Q 14.796875 37.75 14.796875 27.984375 
Q 14.796875 18.265625 18.828125 12.890625 
Q 22.859375 7.515625 30.078125 7.515625 
Q 37.359375 7.515625 41.375 12.890625 
Q 45.40625 18.265625 45.40625 27.984375 
z
M 54.390625 6.78125 
Q 54.390625 -7.171875 48.1875 -13.984375 
Q 42 -20.796875 29.203125 -20.796875 
Q 24.46875 -20.796875 20.265625 -20.09375 
Q 16.0625 -19.390625 12.109375 -17.921875 
L 12.109375 -9.1875 
Q 16.0625 -11.328125 19.921875 -12.34375 
Q 23.78125 -13.375 27.78125 -13.375 
Q 36.625 -13.375 41.015625 -8.765625 
Q 45.40625 -4.15625 45.40625 5.171875 
L 45.40625 9.625 
Q 42.625 4.78125 38.28125 2.390625 
Q 33.9375 0 27.875 0 
Q 17.828125 0 11.671875 7.65625 
Q 5.515625 15.328125 5.515625 27.984375 
Q 5.515625 40.671875 11.671875 48.328125 
Q 17.828125 56 27.875 56 
Q 33.9375 56 38.28125 53.609375 
Q 42.625 51.21875 45.40625 46.390625 
L 45.40625 54.6875 
L 54.390625 54.6875 
z
" id="DejaVuSans-103"/>
       <path d="M 54.890625 33.015625 
L 54.890625 0 
L 45.90625 0 
L 45.90625 32.71875 
Q 45.90625 40.484375 42.875 44.328125 
Q 39.84375 48.1875 33.796875 48.1875 
Q 26.515625 48.1875 22.3125 43.546875 
Q 18.109375 38.921875 18.109375 30.90625 
L 18.109375 0 
L 9.078125 0 
L 9.078125 75.984375 
L 18.109375 75.984375 
L 18.109375 46.1875 
Q 21.34375 51.125 25.703125 53.5625 
Q 30.078125 56 35.796875 56 
Q 45.21875 56 50.046875 50.171875 
Q 54.890625 44.34375 54.890625 33.015625 
z
" id="DejaVuSans-104"/>
       <path d="M 18.3125 70.21875 
L 18.3125 54.6875 
L 36.8125 54.6875 
L 36.8125 47.703125 
L 18.3125 47.703125 
L 18.3125 18.015625 
Q 18.3125 11.328125 20.140625 9.421875 
Q 21.96875 7.515625 27.59375 7.515625 
L 36.8125 7.515625 
L 36.8125 0 
L 27.59375 0 
Q 17.1875 0 13.234375 3.875 
Q 9.28125 7.765625 9.28125 18.015625 
L 9.28125 47.703125 
L 2.6875 47.703125 
L 2.6875 54.6875 
L 9.28125 54.6875 
L 9.28125 70.21875 
z
" id="DejaVuSans-116"/>
      </defs>
      <use xlink:href="#DejaVuSans-72"/>
      <use x="75.195312" xlink:href="#DejaVuSans-101"/>
      <use x="136.71875" xlink:href="#DejaVuSans-105"/>
      <use x="164.501953" xlink:href="#DejaVuSans-103"/>
      <use x="227.978516" xlink:href="#DejaVuSans-104"/>
      <use x="291.357422" xlink:href="#DejaVuSans-116"/>
     </g>
    </g>
   </g>
   <g id="line2d_19">
    <path clip-path="url(#p210783f934)" d="M 72 102.596686 
L 76.509091 96.65826 
L 81.018182 176.494864 
L 85.527273 275.44795 
L 90.036364 326.160916 
L 94.545455 304.023116 
L 99.054545 230.489348 
L 103.563636 148.803901 
L 108.072727 96.274286 
L 112.581818 89.108109 
L 117.090909 122.297861 
L 121.6 178.459904 
L 126.109091 238.091006 
L 130.618182 286.536152 
L 135.127273 316.511844 
L 139.636364 327.297614 
L 144.145455 322.383477 
L 148.654545 307.014721 
L 153.163636 286.391926 
L 157.672727 264.70294 
L 162.181818 244.833847 
L 166.690909 228.498694 
L 171.2 216.553196 
L 175.709091 209.332013 
L 180.218182 206.921739 
L 184.727273 209.332013 
L 189.236364 216.553196 
L 193.745455 228.498694 
L 198.254545 244.833847 
L 202.763636 264.70294 
L 207.272727 286.391926 
L 211.781818 307.014721 
L 216.290909 322.383477 
L 220.8 327.297614 
L 225.309091 316.511844 
L 229.818182 286.536152 
L 234.327273 238.091006 
L 238.836364 178.459904 
L 243.345455 122.297861 
L 247.854545 89.108109 
L 252.363636 96.274286 
L 256.872727 148.803901 
L 261.381818 230.489348 
L 265.890909 304.023116 
L 270.4 326.160916 
L 274.909091 275.44795 
L 279.418182 176.494864 
L 283.927273 96.65826 
L 288.436364 102.596686 
L 292.945455 198.928509 
L 297.454545 305.209749 
L 301.963636 315.818111 
L 306.472727 210.29156 
L 310.981818 98.861667 
L 315.490909 116.411452 
L 320 250.554077 
L 324.509091 327.229147 
L 329.018182 232.181203 
L 333.527273 97.9796 
L 338.036364 135.650301 
L 342.545455 292.301898 
L 347.054545 300.903722 
L 351.563636 138.307614 
L 356.072727 105.772293 
L 360.581818 273.380645 
L 365.090909 304.073481 
L 369.6 127.22712 
L 374.109091 127.532016 
L 378.618182 309.675102 
L 383.127273 247.19422 
L 387.636364 86.904178 
L 392.145455 230.594348 
L 396.654545 311.096848 
L 401.163636 112.805911 
L 405.672727 175.299866 
L 410.181818 325.415166 
L 414.690909 131.803626 
L 419.2 163.488988 
L 423.709091 325.028226 
L 428.218182 119.651036 
L 432.727273 193.468794 
L 437.236364 307.90859 
L 441.745455 90.583258 
L 446.254545 265.226489 
L 450.763636 237.512973 
L 455.272727 106.948035 
L 459.781818 326.966225 
L 464.290909 117.161505 
L 468.8 235.404883 
L 473.309091 245.177075 
L 477.818182 116.807027 
L 482.327273 323.855824 
L 486.836364 88.730816 
L 491.345455 306.489517 
L 495.854545 137.816755 
L 500.363636 241.27371 
L 504.872727 206.024736 
L 509.381818 178.958029 
L 513.890909 257.7924 
L 518.4 139.135322 
" style="fill:none;stroke:#0000ff;stroke-linecap:square;stroke-width:1.5;"/>
   </g>
   <g id="patch_3">
    <path d="M 72 206.921739 
L 72 86.4 
" style="fill:none;stroke:#000000;stroke-linecap:square;stroke-linejoin:miter;stroke-width:0.8;"/>
   </g>
   <g id="patch_4">
    <path d="M 518.4 206.921739 
L 518.4 86.4 
" style="fill:none;stroke:#000000;stroke-linecap:square;stroke-linejoin:miter;stroke-width:0.8;"/>
   </g>
   <g id="patch_5">
    <path d="M 72 206.921739 
L 518.4 206.921739 
" style="fill:none;stroke:#000000;stroke-linecap:square;stroke-linejoin:miter;stroke-width:0.8;"/>
   </g>
   <g id="patch_6">
    <path d="M 72 86.4 
L 518.4 86.4 
" style="fill:none;stroke:#000000;stroke-linecap:square;stroke-linejoin:miter;stroke-width:0.8;"/>
   </g>
   <g id="text_7">
    <!-- Time step   0 -->
    <g transform="translate(232.6335 80.4)scale(0.192 -0.192)">
     <defs>
      <path d="M -0.296875 72.90625 
L 61.375 72.90625 
L 61.375 64.59375 
L 35.5 64.59375 
L 35.5 0 
L 25.59375 0 
L 25.59375 64.59375 
L -0.296875 64.59375 
z
" id="DejaVuSans-84"/>
      <path d="M 52 44.1875 
Q 55.375 50.25 60.0625 53.125 
Q 64.75 56 71.09375 56 
Q 79.640625 56 84.28125 50.015625 
Q 88.921875 44.046875 88.921875 33.015625 
L 88.921875 0 
L 79.890625 0 
L 79.890625 32.71875 
Q 79.890625 40.578125 77.09375 44.375 
Q 74.3125 48.1875 68.609375 48.1875 
Q 61.625 48.1875 57.5625 43.546875 
Q 53.515625 38.921875 53.515625 30.90625 
L 53.515625 0 
L 44.484375 0 
L 44.484375 32.71875 
Q 44.484375 40.625 41.703125 44.40625 
Q 38.921875 48.1875 33.109375 48.1875 
Q 26.21875 48.1875 22.15625 43.53125 
Q 18.109375 38.875 18.109375 30.90625 
L 18.109375 0 
L 9.078125 0 
L 9.078125 54.6875 
L 18.109375 54.6875 
L 18.109375 46.1875 
Q 21.1875 51.21875 25.484375 53.609375 
Q 29.78125 56 35.6875 56 
Q 41.65625 56 45.828125 52.96875 
Q 50 49.953125 52 44.1875 
z
" id="DejaVuSans-109"/>
      <path id="DejaVuSans-32"/>
      <path d="M 44.28125 53.078125 
L 44.28125 44.578125 
Q 40.484375 46.53125 36.375 47.5 
Q 32.28125 48.484375 27.875 48.484375 
Q 21.1875 48.484375 17.84375 46.4375 
Q 14.5 44.390625 14.5 40.28125 
Q 14.5 37.15625 16.890625 35.375 
Q 19.28125 33.59375 26.515625 31.984375 
L 29.59375 31.296875 
Q 39.15625 29.25 43.1875 25.515625 
Q 47.21875 21.78125 47.21875 15.09375 
Q 47.21875 7.46875 41.1875 3.015625 
Q 35.15625 -1.421875 24.609375 -1.421875 
Q 20.21875 -1.421875 15.453125 -0.5625 
Q 10.6875 0.296875 5.421875 2 
L 5.421875 11.28125 
Q 10.40625 8.6875 15.234375 7.390625 
Q 20.0625 6.109375 24.8125 6.109375 
Q 31.15625 6.109375 34.5625 8.28125 
Q 37.984375 10.453125 37.984375 14.40625 
Q 37.984375 18.0625 35.515625 20.015625 
Q 33.0625 21.96875 24.703125 23.78125 
L 21.578125 24.515625 
Q 13.234375 26.265625 9.515625 29.90625 
Q 5.8125 33.546875 5.8125 39.890625 
Q 5.8125 47.609375 11.28125 51.796875 
Q 16.75 56 26.8125 56 
Q 31.78125 56 36.171875 55.265625 
Q 40.578125 54.546875 44.28125 53.078125 
z
" id="DejaVuSans-115"/>
      <path d="M 18.109375 8.203125 
L 18.109375 -20.796875 
L 9.078125 -20.796875 
L 9.078125 54.6875 
L 18.109375 54.6875 
L 18.109375 46.390625 
Q 20.953125 51.265625 25.265625 53.625 
Q 29.59375 56 35.59375 56 
Q 45.5625 56 51.78125 48.09375 
Q 58.015625 40.1875 58.015625 27.296875 
Q 58.015625 14.40625 51.78125 6.484375 
Q 45.5625 -1.421875 35.59375 -1.421875 
Q 29.59375 -1.421875 25.265625 0.953125 
Q 20.953125 3.328125 18.109375 8.203125 
z
M 48.6875 27.296875 
Q 48.6875 37.203125 44.609375 42.84375 
Q 40.53125 48.484375 33.40625 48.484375 
Q 26.265625 48.484375 22.1875 42.84375 
Q 18.109375 37.203125 18.109375 27.296875 
Q 18.109375 17.390625 22.1875 11.75 
Q 26.265625 6.109375 33.40625 6.109375 
Q 40.53125 6.109375 44.609375 11.75 
Q 48.6875 17.390625 48.6875 27.296875 
z
" id="DejaVuSans-112"/>
     </defs>
     <use xlink:href="#DejaVuSans-84"/>
     <use x="57.958984" xlink:href="#DejaVuSans-105"/>
     <use x="85.742188" xlink:href="#DejaVuSans-109"/>
     <use x="183.154297" xlink:href="#DejaVuSans-101"/>
     <use x="244.677734" xlink:href="#DejaVuSans-32"/>
     <use x="276.464844" xlink:href="#DejaVuSans-115"/>
     <use x="328.564453" xlink:href="#DejaVuSans-116"/>
     <use x="367.773438" xlink:href="#DejaVuSans-101"/>
     <use x="429.296875" xlink:href="#DejaVuSans-112"/>
     <use x="492.773438" xlink:href="#DejaVuSans-32"/>
     <use x="524.560547" xlink:href="#DejaVuSans-32"/>
     <use x="556.347656" xlink:href="#DejaVuSans-32"/>
     <use x="588.134766" xlink:href="#DejaVuSans-48"/>
    </g>
   </g>
  </g>
  <g id="axes_2">
   <g id="patch_7">
    <path d="M 72 351.547826 
L 518.4 351.547826 
L 518.4 231.026087 
L 72 231.026087 
z
" style="fill:#ffffff;"/>
   </g>
   <g id="PolyCollection_2">
    <defs>
     <path d="M 72 -249.958747 
L 72 -368.452174 
L 76.509091 -368.452174 
L 81.018182 -368.452174 
L 85.527273 -368.452174 
L 90.036364 -368.452174 
L 94.545455 -368.452174 
L 99.054545 -368.452174 
L 103.563636 -368.452174 
L 108.072727 -368.452174 
L 112.581818 -368.452174 
L 117.090909 -368.452174 
L 121.6 -368.452174 
L 126.109091 -368.452174 
L 130.618182 -368.452174 
L 135.127273 -368.452174 
L 139.636364 -368.452174 
L 144.145455 -368.452174 
L 148.654545 -368.452174 
L 153.163636 -368.452174 
L 157.672727 -368.452174 
L 162.181818 -368.452174 
L 166.690909 -368.452174 
L 171.2 -368.452174 
L 175.709091 -368.452174 
L 180.218182 -368.452174 
L 184.727273 -368.452174 
L 189.236364 -368.452174 
L 193.745455 -368.452174 
L 198.254545 -368.452174 
L 202.763636 -368.452174 
L 207.272727 -368.452174 
L 211.781818 -368.452174 
L 216.290909 -368.452174 
L 220.8 -368.452174 
L 225.309091 -368.452174 
L 229.818182 -368.452174 
L 234.327273 -368.452174 
L 238.836364 -368.452174 
L 243.345455 -368.452174 
L 247.854545 -368.452174 
L 252.363636 -368.452174 
L 256.872727 -368.452174 
L 261.381818 -368.452174 
L 265.890909 -368.452174 
L 270.4 -368.452174 
L 274.909091 -368.452174 
L 279.418182 -368.452174 
L 283.927273 -368.452174 
L 288.436364 -368.452174 
L 292.945455 -368.452174 
L 297.454545 -368.452174 
L 301.963636 -368.452174 
L 306.472727 -368.452174 
L 310.981818 -368.452174 
L 315.490909 -368.452174 
L 320 -368.452174 
L 324.509091 -368.452174 
L 329.018182 -368.452174 
L 333.527273 -368.452174 
L 338.036364 -368.452174 
L 342.545455 -368.452174 
L 347.054545 -368.452174 
L 351.563636 -368.452174 
L 356.072727 -368.452174 
L 360.581818 -368.452174 
L 365.090909 -368.452174 
L 369.6 -368.452174 
L 374.109091 -368.452174 
L 378.618182 -368.452174 
L 383.127273 -368.452174 
L 387.636364 -368.452174 
L 392.145455 -368.452174 
L 396.654545 -368.452174 
L 401.163636 -368.452174 
L 405.672727 -368.452174 
L 410.181818 -368.452174 
L 414.690909 -368.452174 
L 419.2 -368.452174 
L 423.709091 -368.452174 
L 428.218182 -368.452174 
L 432.727273 -368.452174 
L 437.236364 -368.452174 
L 441.745455 -368.452174 
L 446.254545 -368.452174 
L 450.763636 -368.452174 
L 455.272727 -368.452174 
L 459.781818 -368.452174 
L 464.290909 -368.452174 
L 468.8 -368.452174 
L 473.309091 -368.452174 
L 477.818182 -368.452174 
L 482.327273 -368.452174 
L 486.836364 -368.452174 
L 491.345455 -368.452174 
L 495.854545 -368.452174 
L 500.363636 -368.452174 
L 504.872727 -368.452174 
L 509.381818 -368.452174 
L 513.890909 -368.452174 
L 518.4 -368.452174 
L 518.4 -400.074043 
L 518.4 -400.074043 
L 513.890909 -462.568002 
L 509.381818 -264.277073 
L 504.872727 -344.779565 
L 500.363636 -488.469743 
L 495.854545 -328.179689 
L 491.345455 -265.698819 
L 486.836364 -447.841897 
L 482.327273 -448.146793 
L 477.818182 -271.300425 
L 473.309091 -301.993268 
L 468.8 -469.601627 
L 464.290909 -437.066299 
L 459.781818 -274.470191 
L 455.272727 -283.072015 
L 450.763636 -439.723605 
L 446.254545 -477.394313 
L 441.745455 -343.19271 
L 437.236364 -248.144766 
L 432.727273 -324.819836 
L 428.218182 -458.962461 
L 423.709091 -476.512246 
L 419.2 -365.08235 
L 414.690909 -259.555802 
L 410.181818 -270.164164 
L 405.672727 -376.445406 
L 401.163636 -472.777227 
L 396.654545 -478.715653 
L 392.145455 -398.879049 
L 387.636364 -299.925963 
L 383.127273 -249.212997 
L 378.618182 -271.350797 
L 374.109091 -344.884562 
L 369.6 -426.570008 
L 365.090909 -479.099627 
L 360.581818 -486.265804 
L 356.072727 -453.076052 
L 351.563636 -396.914011 
L 347.054545 -337.282911 
L 342.545455 -288.837761 
L 338.036364 -258.862069 
L 333.527273 -248.076299 
L 329.018182 -252.990436 
L 324.509091 -268.359192 
L 320 -288.981987 
L 315.490909 -310.670973 
L 310.981818 -330.540066 
L 306.472727 -346.875219 
L 301.963636 -358.820717 
L 297.454545 -366.0419 
L 292.945455 -368.452174 
L 288.436364 -366.0419 
L 283.927273 -358.820717 
L 279.418182 -346.875219 
L 274.909091 -330.540066 
L 270.4 -310.670973 
L 265.890909 -288.981987 
L 261.381818 -268.359192 
L 256.872727 -252.990436 
L 252.363636 -248.076299 
L 247.854545 -258.862069 
L 243.345455 -288.837761 
L 238.836364 -337.282907 
L 234.327273 -396.914007 
L 229.818182 -453.076052 
L 225.309091 -486.265804 
L 220.8 -479.099627 
L 216.290909 -426.570012 
L 211.781818 -344.884565 
L 207.272727 -271.350804 
L 202.763636 -249.212997 
L 198.254545 -299.925963 
L 193.745455 -398.879049 
L 189.236364 -478.715653 
L 184.727273 -472.777227 
L 180.218182 -436.238591 
L 175.709091 -317.581513 
L 171.2 -396.415882 
L 166.690909 -369.349177 
L 162.181818 -334.100199 
L 157.672727 -437.557158 
L 153.163636 -268.884396 
L 148.654545 -486.64309 
L 144.145455 -251.518082 
L 139.636364 -458.566893 
L 135.127273 -330.196838 
L 130.618182 -339.96903 
L 126.109091 -458.212408 
L 121.6 -248.407688 
L 117.090909 -468.425871 
L 112.581818 -337.860951 
L 108.072727 -310.147424 
L 103.563636 -484.790655 
L 99.054545 -267.465323 
L 94.545455 -381.90512 
L 90.036364 -455.722877 
L 85.527273 -250.345688 
L 81.018182 -411.884921 
L 76.509091 -443.570287 
L 72 -249.958747 
z
" id="m2745b49ca1" style="stroke:#0000ff;stroke-opacity:0.4;"/>
    </defs>
    <g clip-path="url(#pc1740a6c67)">
     <use style="fill:#0000ff;fill-opacity:0.4;stroke:#0000ff;stroke-opacity:0.4;" x="0" xlink:href="#m2745b49ca1" y="720"/>
    </g>
   </g>
   <g id="matplotlib.axis_3">
    <g id="xtick_5">
     <g id="line2d_20">
      <path clip-path="url(#pc1740a6c67)" d="M 180.218182 351.547826 
L 180.218182 231.026087 
" style="fill:none;stroke:#b0b0b0;stroke-linecap:square;stroke-width:0.8;"/>
     </g>
     <g id="line2d_21">
      <g>
       <use style="stroke:#000000;stroke-width:0.8;" x="180.218182" xlink:href="#m3ad975fd98" y="351.547826"/>
      </g>
     </g>
    </g>
    <g id="xtick_6">
     <g id="line2d_22">
      <path clip-path="url(#pc1740a6c67)" d="M 292.945455 351.547826 
L 292.945455 231.026087 
" style="fill:none;stroke:#b0b0b0;stroke-linecap:square;stroke-width:0.8;"/>
     </g>
     <g id="line2d_23">
      <g>
       <use style="stroke:#000000;stroke-width:0.8;" x="292.945455" xlink:href="#m3ad975fd98" y="351.547826"/>
      </g>
     </g>
    </g>
    <g id="xtick_7">
     <g id="line2d_24">
      <path clip-path="url(#pc1740a6c67)" d="M 405.672727 351.547826 
L 405.672727 231.026087 
" style="fill:none;stroke:#b0b0b0;stroke-linecap:square;stroke-width:0.8;"/>
     </g>
     <g id="line2d_25">
      <g>
       <use style="stroke:#000000;stroke-width:0.8;" x="405.672727" xlink:href="#m3ad975fd98" y="351.547826"/>
      </g>
     </g>
    </g>
    <g id="xtick_8">
     <g id="line2d_26">
      <path clip-path="url(#pc1740a6c67)" d="M 518.4 351.547826 
L 518.4 231.026087 
" style="fill:none;stroke:#b0b0b0;stroke-linecap:square;stroke-width:0.8;"/>
     </g>
     <g id="line2d_27">
      <g>
       <use style="stroke:#000000;stroke-width:0.8;" x="518.4" xlink:href="#m3ad975fd98" y="351.547826"/>
      </g>
     </g>
    </g>
   </g>
   <g id="matplotlib.axis_4">
    <g id="ytick_6">
     <g id="line2d_28">
      <path clip-path="url(#pc1740a6c67)" d="M 72 351.547826 
L 518.4 351.547826 
" style="fill:none;stroke:#b0b0b0;stroke-linecap:square;stroke-width:0.8;"/>
     </g>
     <g id="line2d_29">
      <g>
       <use style="stroke:#000000;stroke-width:0.8;" x="72" xlink:href="#mde6243a6fc" y="351.547826"/>
      </g>
     </g>
     <g id="text_8">
      <!-- 0.00 -->
      <g transform="translate(29.375 357.626576)scale(0.16 -0.16)">
       <use xlink:href="#DejaVuSans-48"/>
       <use x="63.623047" xlink:href="#DejaVuSans-46"/>
       <use x="95.410156" xlink:href="#DejaVuSans-48"/>
       <use x="159.033203" xlink:href="#DejaVuSans-48"/>
      </g>
     </g>
    </g>
    <g id="ytick_7">
     <g id="line2d_30">
      <path clip-path="url(#pc1740a6c67)" d="M 72 321.417391 
L 518.4 321.417391 
" style="fill:none;stroke:#b0b0b0;stroke-linecap:square;stroke-width:0.8;"/>
     </g>
     <g id="line2d_31">
      <g>
       <use style="stroke:#000000;stroke-width:0.8;" x="72" xlink:href="#mde6243a6fc" y="321.417391"/>
      </g>
     </g>
     <g id="text_9">
      <!-- 0.25 -->
      <g transform="translate(29.375 327.496141)scale(0.16 -0.16)">
       <use xlink:href="#DejaVuSans-48"/>
       <use x="63.623047" xlink:href="#DejaVuSans-46"/>
       <use x="95.410156" xlink:href="#DejaVuSans-50"/>
       <use x="159.033203" xlink:href="#DejaVuSans-53"/>
      </g>
     </g>
    </g>
    <g id="ytick_8">
     <g id="line2d_32">
      <path clip-path="url(#pc1740a6c67)" d="M 72 291.286957 
L 518.4 291.286957 
" style="fill:none;stroke:#b0b0b0;stroke-linecap:square;stroke-width:0.8;"/>
     </g>
     <g id="line2d_33">
      <g>
       <use style="stroke:#000000;stroke-width:0.8;" x="72" xlink:href="#mde6243a6fc" y="291.286957"/>
      </g>
     </g>
     <g id="text_10">
      <!-- 0.50 -->
      <g transform="translate(29.375 297.365707)scale(0.16 -0.16)">
       <use xlink:href="#DejaVuSans-48"/>
       <use x="63.623047" xlink:href="#DejaVuSans-46"/>
       <use x="95.410156" xlink:href="#DejaVuSans-53"/>
       <use x="159.033203" xlink:href="#DejaVuSans-48"/>
      </g>
     </g>
    </g>
    <g id="ytick_9">
     <g id="line2d_34">
      <path clip-path="url(#pc1740a6c67)" d="M 72 261.156522 
L 518.4 261.156522 
" style="fill:none;stroke:#b0b0b0;stroke-linecap:square;stroke-width:0.8;"/>
     </g>
     <g id="line2d_35">
      <g>
       <use style="stroke:#000000;stroke-width:0.8;" x="72" xlink:href="#mde6243a6fc" y="261.156522"/>
      </g>
     </g>
     <g id="text_11">
      <!-- 0.75 -->
      <g transform="translate(29.375 267.235272)scale(0.16 -0.16)">
       <use xlink:href="#DejaVuSans-48"/>
       <use x="63.623047" xlink:href="#DejaVuSans-46"/>
       <use x="95.410156" xlink:href="#DejaVuSans-55"/>
       <use x="159.033203" xlink:href="#DejaVuSans-53"/>
      </g>
     </g>
    </g>
    <g id="ytick_10">
     <g id="line2d_36">
      <path clip-path="url(#pc1740a6c67)" d="M 72 231.026087 
L 518.4 231.026087 
" style="fill:none;stroke:#b0b0b0;stroke-linecap:square;stroke-width:0.8;"/>
     </g>
     <g id="line2d_37">
      <g>
       <use style="stroke:#000000;stroke-width:0.8;" x="72" xlink:href="#mde6243a6fc" y="231.026087"/>
      </g>
     </g>
     <g id="text_12">
      <!-- 1.00 -->
      <g transform="translate(29.375 237.104837)scale(0.16 -0.16)">
       <use xlink:href="#DejaVuSans-49"/>
       <use x="63.623047" xlink:href="#DejaVuSans-46"/>
       <use x="95.410156" xlink:href="#DejaVuSans-48"/>
       <use x="159.033203" xlink:href="#DejaVuSans-48"/>
      </g>
     </g>
    </g>
    <g id="text_13">
     <!-- Height -->
     <g transform="translate(22.0475 317.733207)rotate(-90)scale(0.16 -0.16)">
      <use xlink:href="#DejaVuSans-72"/>
      <use x="75.195312" xlink:href="#DejaVuSans-101"/>
      <use x="136.71875" xlink:href="#DejaVuSans-105"/>
      <use x="164.501953" xlink:href="#DejaVuSans-103"/>
      <use x="227.978516" xlink:href="#DejaVuSans-104"/>
      <use x="291.357422" xlink:href="#DejaVuSans-116"/>
     </g>
    </g>
   </g>
   <g id="line2d_38">
    <path clip-path="url(#pc1740a6c67)" d="M 72 470.041253 
L 76.509091 276.429713 
L 81.018182 308.115079 
L 85.527273 469.654312 
L 90.036364 264.277123 
L 94.545455 338.09488 
L 99.054545 452.534677 
L 103.563636 235.209345 
L 108.072727 409.852576 
L 112.581818 382.139049 
L 117.090909 251.574129 
L 121.6 471.592312 
L 126.109091 261.787592 
L 130.618182 380.03097 
L 135.127273 389.803162 
L 139.636364 261.433107 
L 144.145455 468.481918 
L 148.654545 233.35691 
L 153.163636 451.115604 
L 157.672727 282.442842 
L 162.181818 385.899801 
L 166.690909 350.650823 
L 171.2 323.584118 
L 175.709091 402.418487 
L 180.218182 283.761409 
L 184.727273 247.222773 
L 189.236364 241.284347 
L 193.745455 321.120951 
L 198.254545 420.074037 
L 202.763636 470.787003 
L 207.272727 448.649196 
L 211.781818 375.115435 
L 216.290909 293.429988 
L 220.8 240.900373 
L 225.309091 233.734196 
L 229.818182 266.923948 
L 234.327273 323.085993 
L 238.836364 382.717093 
L 243.345455 431.162239 
L 247.854545 461.137931 
L 252.363636 471.923701 
L 256.872727 467.009564 
L 261.381818 451.640808 
L 265.890909 431.018013 
L 270.4 409.329027 
L 274.909091 389.459934 
L 279.418182 373.124781 
L 283.927273 361.179283 
L 288.436364 353.9581 
L 292.945455 351.547826 
L 297.454545 353.9581 
L 301.963636 361.179283 
L 306.472727 373.124781 
L 310.981818 389.459934 
L 315.490909 409.329027 
L 320 431.018013 
L 324.509091 451.640808 
L 329.018182 467.009564 
L 333.527273 471.923701 
L 338.036364 461.137931 
L 342.545455 431.162239 
L 347.054545 382.717089 
L 351.563636 323.085989 
L 356.072727 266.923948 
L 360.581818 233.734196 
L 365.090909 240.900373 
L 369.6 293.429992 
L 374.109091 375.115438 
L 378.618182 448.649203 
L 383.127273 470.787003 
L 387.636364 420.074037 
L 392.145455 321.120951 
L 396.654545 241.284347 
L 401.163636 247.222773 
L 405.672727 343.554594 
L 410.181818 449.835836 
L 414.690909 460.444198 
L 419.2 354.91765 
L 423.709091 243.487754 
L 428.218182 261.037539 
L 432.727273 395.180164 
L 437.236364 471.855234 
L 441.745455 376.80729 
L 446.254545 242.605687 
L 450.763636 280.276395 
L 455.272727 436.927985 
L 459.781818 445.529809 
L 464.290909 282.933701 
L 468.8 250.398373 
L 473.309091 418.006732 
L 477.818182 448.699575 
L 482.327273 271.853207 
L 486.836364 272.158103 
L 491.345455 454.301181 
L 495.854545 391.820311 
L 500.363636 231.530257 
L 504.872727 375.220435 
L 509.381818 455.722927 
L 513.890909 257.431998 
L 518.4 319.925957 
" style="fill:none;stroke:#0000ff;stroke-linecap:square;stroke-width:1.5;"/>
   </g>
   <g id="patch_8">
    <path d="M 72 351.547826 
L 72 231.026087 
" style="fill:none;stroke:#000000;stroke-linecap:square;stroke-linejoin:miter;stroke-width:0.8;"/>
   </g>
   <g id="patch_9">
    <path d="M 518.4 351.547826 
L 518.4 231.026087 
" style="fill:none;stroke:#000000;stroke-linecap:square;stroke-linejoin:miter;stroke-width:0.8;"/>
   </g>
   <g id="patch_10">
    <path d="M 72 351.547826 
L 518.4 351.547826 
" style="fill:none;stroke:#000000;stroke-linecap:square;stroke-linejoin:miter;stroke-width:0.8;"/>
   </g>
   <g id="patch_11">
    <path d="M 72 231.026087 
L 518.4 231.026087 
" style="fill:none;stroke:#000000;stroke-linecap:square;stroke-linejoin:miter;stroke-width:0.8;"/>
   </g>
   <g id="text_14">
    <!-- Time step  25 -->
    <g transform="translate(229.5765 225.026087)scale(0.192 -0.192)">
     <use xlink:href="#DejaVuSans-84"/>
     <use x="57.958984" xlink:href="#DejaVuSans-105"/>
     <use x="85.742188" xlink:href="#DejaVuSans-109"/>
     <use x="183.154297" xlink:href="#DejaVuSans-101"/>
     <use x="244.677734" xlink:href="#DejaVuSans-32"/>
     <use x="276.464844" xlink:href="#DejaVuSans-115"/>
     <use x="328.564453" xlink:href="#DejaVuSans-116"/>
     <use x="367.773438" xlink:href="#DejaVuSans-101"/>
     <use x="429.296875" xlink:href="#DejaVuSans-112"/>
     <use x="492.773438" xlink:href="#DejaVuSans-32"/>
     <use x="524.560547" xlink:href="#DejaVuSans-32"/>
     <use x="556.347656" xlink:href="#DejaVuSans-50"/>
     <use x="619.970703" xlink:href="#DejaVuSans-53"/>
    </g>
   </g>
  </g>
  <g id="axes_3">
   <g id="patch_12">
    <path d="M 72 496.173913 
L 518.4 496.173913 
L 518.4 375.652174 
L 72 375.652174 
z
" style="fill:#ffffff;"/>
   </g>
   <g id="PolyCollection_3">
    <defs>
     <path d="M 72 -125.538077 
L 72 -223.826087 
L 76.509091 -223.826087 
L 81.018182 -223.826087 
L 85.527273 -223.826087 
L 90.036364 -223.826087 
L 94.545455 -223.826087 
L 99.054545 -223.826087 
L 103.563636 -223.826087 
L 108.072727 -223.826087 
L 112.581818 -223.826087 
L 117.090909 -223.826087 
L 121.6 -223.826087 
L 126.109091 -223.826087 
L 130.618182 -223.826087 
L 135.127273 -223.826087 
L 139.636364 -223.826087 
L 144.145455 -223.826087 
L 148.654545 -223.826087 
L 153.163636 -223.826087 
L 157.672727 -223.826087 
L 162.181818 -223.826087 
L 166.690909 -223.826087 
L 171.2 -223.826087 
L 175.709091 -223.826087 
L 180.218182 -223.826087 
L 184.727273 -223.826087 
L 189.236364 -223.826087 
L 193.745455 -223.826087 
L 198.254545 -223.826087 
L 202.763636 -223.826087 
L 207.272727 -223.826087 
L 211.781818 -223.826087 
L 216.290909 -223.826087 
L 220.8 -223.826087 
L 225.309091 -223.826087 
L 229.818182 -223.826087 
L 234.327273 -223.826087 
L 238.836364 -223.826087 
L 243.345455 -223.826087 
L 247.854545 -223.826087 
L 252.363636 -223.826087 
L 256.872727 -223.826087 
L 261.381818 -223.826087 
L 265.890909 -223.826087 
L 270.4 -223.826087 
L 274.909091 -223.826087 
L 279.418182 -223.826087 
L 283.927273 -223.826087 
L 288.436364 -223.826087 
L 292.945455 -223.826087 
L 297.454545 -223.826087 
L 301.963636 -223.826087 
L 306.472727 -223.826087 
L 310.981818 -223.826087 
L 315.490909 -223.826087 
L 320 -223.826087 
L 324.509091 -223.826087 
L 329.018182 -223.826087 
L 333.527273 -223.826087 
L 338.036364 -223.826087 
L 342.545455 -223.826087 
L 347.054545 -223.826087 
L 351.563636 -223.826087 
L 356.072727 -223.826087 
L 360.581818 -223.826087 
L 365.090909 -223.826087 
L 369.6 -223.826087 
L 374.109091 -223.826087 
L 378.618182 -223.826087 
L 383.127273 -223.826087 
L 387.636364 -223.826087 
L 392.145455 -223.826087 
L 396.654545 -223.826087 
L 401.163636 -223.826087 
L 405.672727 -223.826087 
L 410.181818 -223.826087 
L 414.690909 -223.826087 
L 419.2 -223.826087 
L 423.709091 -223.826087 
L 428.218182 -223.826087 
L 432.727273 -223.826087 
L 437.236364 -223.826087 
L 441.745455 -223.826087 
L 446.254545 -223.826087 
L 450.763636 -223.826087 
L 455.272727 -223.826087 
L 459.781818 -223.826087 
L 464.290909 -223.826087 
L 468.8 -223.826087 
L 473.309091 -223.826087 
L 477.818182 -223.826087 
L 482.327273 -223.826087 
L 486.836364 -223.826087 
L 491.345455 -223.826087 
L 495.854545 -223.826087 
L 500.363636 -223.826087 
L 504.872727 -223.826087 
L 509.381818 -223.826087 
L 513.890909 -223.826087 
L 518.4 -223.826087 
L 518.4 -231.819319 
L 518.4 -231.819319 
L 513.890909 -328.15114 
L 509.381818 -334.089566 
L 504.872727 -254.252962 
L 500.363636 -155.299876 
L 495.854545 -104.586911 
L 491.345455 -126.72471 
L 486.836364 -200.258475 
L 482.327273 -281.943921 
L 477.818182 -334.47354 
L 473.309091 -341.639717 
L 468.8 -308.449965 
L 464.290909 -252.287924 
L 459.781818 -192.656824 
L 455.272727 -144.211674 
L 450.763636 -114.235982 
L 446.254545 -103.450212 
L 441.745455 -108.36435 
L 437.236364 -123.733105 
L 432.727273 -144.3559 
L 428.218182 -166.044886 
L 423.709091 -185.913979 
L 419.2 -202.249132 
L 414.690909 -214.19463 
L 410.181818 -221.415813 
L 405.672727 -223.826087 
L 401.163636 -221.415813 
L 396.654545 -214.19463 
L 392.145455 -202.249132 
L 387.636364 -185.913979 
L 383.127273 -166.044886 
L 378.618182 -144.3559 
L 374.109091 -123.733105 
L 369.6 -108.36435 
L 365.090909 -103.450212 
L 360.581818 -114.235982 
L 356.072727 -144.211674 
L 351.563636 -192.65682 
L 347.054545 -252.28792 
L 342.545455 -308.449965 
L 338.036364 -341.639717 
L 333.527273 -334.47354 
L 329.018182 -281.943925 
L 324.509091 -200.258478 
L 320 -126.724717 
L 315.490909 -104.586911 
L 310.981818 -155.299876 
L 306.472727 -254.252962 
L 301.963636 -334.089566 
L 297.454545 -328.15114 
L 292.945455 -291.612504 
L 288.436364 -172.955426 
L 283.927273 -251.789795 
L 279.418182 -224.72309 
L 274.909091 -189.474112 
L 270.4 -292.931071 
L 265.890909 -124.258309 
L 261.381818 -342.017003 
L 256.872727 -106.891995 
L 252.363636 -313.940806 
L 247.854545 -185.570751 
L 243.345455 -195.342943 
L 238.836364 -313.586322 
L 234.327273 -103.781601 
L 229.818182 -323.799784 
L 225.309091 -193.234864 
L 220.8 -165.521338 
L 216.290909 -340.164568 
L 211.781818 -122.839236 
L 207.272727 -237.279033 
L 202.763636 -311.09679 
L 198.254545 -105.719601 
L 193.745455 -267.258834 
L 189.236364 -298.9442 
L 184.727273 -105.33266 
L 180.218182 -255.447956 
L 175.709091 -317.941915 
L 171.2 -119.650986 
L 166.690909 -200.153478 
L 162.181818 -343.843656 
L 157.672727 -183.553602 
L 153.163636 -121.072732 
L 148.654545 -303.21581 
L 144.145455 -303.520706 
L 139.636364 -126.674338 
L 135.127273 -157.367181 
L 130.618182 -324.97554 
L 126.109091 -292.440212 
L 121.6 -129.844104 
L 117.090909 -138.445928 
L 112.581818 -295.097518 
L 108.072727 -332.768226 
L 103.563636 -198.566623 
L 99.054545 -103.518679 
L 94.545455 -180.193749 
L 90.036364 -314.336374 
L 85.527273 -331.886159 
L 81.018182 -220.456263 
L 76.509091 -114.929715 
L 72 -125.538077 
z
" id="m656829deaa" style="stroke:#0000ff;stroke-opacity:0.4;"/>
    </defs>
    <g clip-path="url(#pfd15f0e5a5)">
     <use style="fill:#0000ff;fill-opacity:0.4;stroke:#0000ff;stroke-opacity:0.4;" x="0" xlink:href="#m656829deaa" y="720"/>
    </g>
   </g>
   <g id="matplotlib.axis_5">
    <g id="xtick_9">
     <g id="line2d_39">
      <path clip-path="url(#pfd15f0e5a5)" d="M 180.218182 496.173913 
L 180.218182 375.652174 
" style="fill:none;stroke:#b0b0b0;stroke-linecap:square;stroke-width:0.8;"/>
     </g>
     <g id="line2d_40">
      <g>
       <use style="stroke:#000000;stroke-width:0.8;" x="180.218182" xlink:href="#m3ad975fd98" y="496.173913"/>
      </g>
     </g>
    </g>
    <g id="xtick_10">
     <g id="line2d_41">
      <path clip-path="url(#pfd15f0e5a5)" d="M 292.945455 496.173913 
L 292.945455 375.652174 
" style="fill:none;stroke:#b0b0b0;stroke-linecap:square;stroke-width:0.8;"/>
     </g>
     <g id="line2d_42">
      <g>
       <use style="stroke:#000000;stroke-width:0.8;" x="292.945455" xlink:href="#m3ad975fd98" y="496.173913"/>
      </g>
     </g>
    </g>
    <g id="xtick_11">
     <g id="line2d_43">
      <path clip-path="url(#pfd15f0e5a5)" d="M 405.672727 496.173913 
L 405.672727 375.652174 
" style="fill:none;stroke:#b0b0b0;stroke-linecap:square;stroke-width:0.8;"/>
     </g>
     <g id="line2d_44">
      <g>
       <use style="stroke:#000000;stroke-width:0.8;" x="405.672727" xlink:href="#m3ad975fd98" y="496.173913"/>
      </g>
     </g>
    </g>
    <g id="xtick_12">
     <g id="line2d_45">
      <path clip-path="url(#pfd15f0e5a5)" d="M 518.4 496.173913 
L 518.4 375.652174 
" style="fill:none;stroke:#b0b0b0;stroke-linecap:square;stroke-width:0.8;"/>
     </g>
     <g id="line2d_46">
      <g>
       <use style="stroke:#000000;stroke-width:0.8;" x="518.4" xlink:href="#m3ad975fd98" y="496.173913"/>
      </g>
     </g>
    </g>
   </g>
   <g id="matplotlib.axis_6">
    <g id="ytick_11">
     <g id="line2d_47">
      <path clip-path="url(#pfd15f0e5a5)" d="M 72 496.173913 
L 518.4 496.173913 
" style="fill:none;stroke:#b0b0b0;stroke-linecap:square;stroke-width:0.8;"/>
     </g>
     <g id="line2d_48">
      <g>
       <use style="stroke:#000000;stroke-width:0.8;" x="72" xlink:href="#mde6243a6fc" y="496.173913"/>
      </g>
     </g>
     <g id="text_15">
      <!-- 0.00 -->
      <g transform="translate(29.375 502.252663)scale(0.16 -0.16)">
       <use xlink:href="#DejaVuSans-48"/>
       <use x="63.623047" xlink:href="#DejaVuSans-46"/>
       <use x="95.410156" xlink:href="#DejaVuSans-48"/>
       <use x="159.033203" xlink:href="#DejaVuSans-48"/>
      </g>
     </g>
    </g>
    <g id="ytick_12">
     <g id="line2d_49">
      <path clip-path="url(#pfd15f0e5a5)" d="M 72 466.043478 
L 518.4 466.043478 
" style="fill:none;stroke:#b0b0b0;stroke-linecap:square;stroke-width:0.8;"/>
     </g>
     <g id="line2d_50">
      <g>
       <use style="stroke:#000000;stroke-width:0.8;" x="72" xlink:href="#mde6243a6fc" y="466.043478"/>
      </g>
     </g>
     <g id="text_16">
      <!-- 0.25 -->
      <g transform="translate(29.375 472.122228)scale(0.16 -0.16)">
       <use xlink:href="#DejaVuSans-48"/>
       <use x="63.623047" xlink:href="#DejaVuSans-46"/>
       <use x="95.410156" xlink:href="#DejaVuSans-50"/>
       <use x="159.033203" xlink:href="#DejaVuSans-53"/>
      </g>
     </g>
    </g>
    <g id="ytick_13">
     <g id="line2d_51">
      <path clip-path="url(#pfd15f0e5a5)" d="M 72 435.913043 
L 518.4 435.913043 
" style="fill:none;stroke:#b0b0b0;stroke-linecap:square;stroke-width:0.8;"/>
     </g>
     <g id="line2d_52">
      <g>
       <use style="stroke:#000000;stroke-width:0.8;" x="72" xlink:href="#mde6243a6fc" y="435.913043"/>
      </g>
     </g>
     <g id="text_17">
      <!-- 0.50 -->
      <g transform="translate(29.375 441.991793)scale(0.16 -0.16)">
       <use xlink:href="#DejaVuSans-48"/>
       <use x="63.623047" xlink:href="#DejaVuSans-46"/>
       <use x="95.410156" xlink:href="#DejaVuSans-53"/>
       <use x="159.033203" xlink:href="#DejaVuSans-48"/>
      </g>
     </g>
    </g>
    <g id="ytick_14">
     <g id="line2d_53">
      <path clip-path="url(#pfd15f0e5a5)" d="M 72 405.782609 
L 518.4 405.782609 
" style="fill:none;stroke:#b0b0b0;stroke-linecap:square;stroke-width:0.8;"/>
     </g>
     <g id="line2d_54">
      <g>
       <use style="stroke:#000000;stroke-width:0.8;" x="72" xlink:href="#mde6243a6fc" y="405.782609"/>
      </g>
     </g>
     <g id="text_18">
      <!-- 0.75 -->
      <g transform="translate(29.375 411.861359)scale(0.16 -0.16)">
       <use xlink:href="#DejaVuSans-48"/>
       <use x="63.623047" xlink:href="#DejaVuSans-46"/>
       <use x="95.410156" xlink:href="#DejaVuSans-55"/>
       <use x="159.033203" xlink:href="#DejaVuSans-53"/>
      </g>
     </g>
    </g>
    <g id="ytick_15">
     <g id="line2d_55">
      <path clip-path="url(#pfd15f0e5a5)" d="M 72 375.652174 
L 518.4 375.652174 
" style="fill:none;stroke:#b0b0b0;stroke-linecap:square;stroke-width:0.8;"/>
     </g>
     <g id="line2d_56">
      <g>
       <use style="stroke:#000000;stroke-width:0.8;" x="72" xlink:href="#mde6243a6fc" y="375.652174"/>
      </g>
     </g>
     <g id="text_19">
      <!-- 1.00 -->
      <g transform="translate(29.375 381.730924)scale(0.16 -0.16)">
       <use xlink:href="#DejaVuSans-49"/>
       <use x="63.623047" xlink:href="#DejaVuSans-46"/>
       <use x="95.410156" xlink:href="#DejaVuSans-48"/>
       <use x="159.033203" xlink:href="#DejaVuSans-48"/>
      </g>
     </g>
    </g>
    <g id="text_20">
     <!-- Height -->
     <g transform="translate(22.0475 462.359293)rotate(-90)scale(0.16 -0.16)">
      <use xlink:href="#DejaVuSans-72"/>
      <use x="75.195312" xlink:href="#DejaVuSans-101"/>
      <use x="136.71875" xlink:href="#DejaVuSans-105"/>
      <use x="164.501953" xlink:href="#DejaVuSans-103"/>
      <use x="227.978516" xlink:href="#DejaVuSans-104"/>
      <use x="291.357422" xlink:href="#DejaVuSans-116"/>
     </g>
    </g>
   </g>
   <g id="line2d_57">
    <path clip-path="url(#pfd15f0e5a5)" d="M 72 594.461923 
L 76.509091 605.070285 
L 81.018182 499.543737 
L 85.527273 388.113841 
L 90.036364 405.663626 
L 94.545455 539.806251 
L 99.054545 616.481321 
L 103.563636 521.433377 
L 108.072727 387.231774 
L 112.581818 424.902482 
L 117.090909 581.554072 
L 121.6 590.155896 
L 126.109091 427.559788 
L 130.618182 395.02446 
L 135.127273 562.632819 
L 139.636364 593.325662 
L 144.145455 416.479294 
L 148.654545 416.78419 
L 153.163636 598.927268 
L 157.672727 536.446398 
L 162.181818 376.156344 
L 166.690909 519.846522 
L 171.2 600.349014 
L 175.709091 402.058085 
L 180.218182 464.552044 
L 184.727273 614.66734 
L 189.236364 421.0558 
L 193.745455 452.741166 
L 198.254545 614.280399 
L 202.763636 408.90321 
L 207.272727 482.720967 
L 211.781818 597.160764 
L 216.290909 379.835432 
L 220.8 554.478662 
L 225.309091 526.765136 
L 229.818182 396.200216 
L 234.327273 616.218399 
L 238.836364 406.413678 
L 243.345455 524.657057 
L 247.854545 534.429249 
L 252.363636 406.059194 
L 256.872727 613.108005 
L 261.381818 377.982997 
L 265.890909 595.741691 
L 270.4 427.068929 
L 274.909091 530.525888 
L 279.418182 495.27691 
L 283.927273 468.210205 
L 288.436364 547.044574 
L 292.945455 428.387496 
L 297.454545 391.84886 
L 301.963636 385.910434 
L 306.472727 465.747038 
L 310.981818 564.700124 
L 315.490909 615.413089 
L 320 593.275283 
L 324.509091 519.741522 
L 329.018182 438.056075 
L 333.527273 385.52646 
L 338.036364 378.360283 
L 342.545455 411.550035 
L 347.054545 467.71208 
L 351.563636 527.34318 
L 356.072727 575.788326 
L 360.581818 605.764018 
L 365.090909 616.549788 
L 369.6 611.63565 
L 374.109091 596.266895 
L 378.618182 575.6441 
L 383.127273 553.955114 
L 387.636364 534.086021 
L 392.145455 517.750868 
L 396.654545 505.80537 
L 401.163636 498.584187 
L 405.672727 496.173913 
L 410.181818 498.584187 
L 414.690909 505.80537 
L 419.2 517.750868 
L 423.709091 534.086021 
L 428.218182 553.955114 
L 432.727273 575.6441 
L 437.236364 596.266895 
L 441.745455 611.63565 
L 446.254545 616.549788 
L 450.763636 605.764018 
L 455.272727 575.788326 
L 459.781818 527.343176 
L 464.290909 467.712076 
L 468.8 411.550035 
L 473.309091 378.360283 
L 477.818182 385.52646 
L 482.327273 438.056079 
L 486.836364 519.741525 
L 491.345455 593.27529 
L 495.854545 615.413089 
L 500.363636 564.700124 
L 504.872727 465.747038 
L 509.381818 385.910434 
L 513.890909 391.84886 
L 518.4 488.180681 
" style="fill:none;stroke:#0000ff;stroke-linecap:square;stroke-width:1.5;"/>
   </g>
   <g id="patch_13">
    <path d="M 72 496.173913 
L 72 375.652174 
" style="fill:none;stroke:#000000;stroke-linecap:square;stroke-linejoin:miter;stroke-width:0.8;"/>
   </g>
   <g id="patch_14">
    <path d="M 518.4 496.173913 
L 518.4 375.652174 
" style="fill:none;stroke:#000000;stroke-linecap:square;stroke-linejoin:miter;stroke-width:0.8;"/>
   </g>
   <g id="patch_15">
    <path d="M 72 496.173913 
L 518.4 496.173913 
" style="fill:none;stroke:#000000;stroke-linecap:square;stroke-linejoin:miter;stroke-width:0.8;"/>
   </g>
   <g id="patch_16">
    <path d="M 72 375.652174 
L 518.4 375.652174 
" style="fill:none;stroke:#000000;stroke-linecap:square;stroke-linejoin:miter;stroke-width:0.8;"/>
   </g>
   <g id="text_21">
    <!-- Time step  50 -->
    <g transform="translate(229.5765 369.652174)scale(0.192 -0.192)">
     <use xlink:href="#DejaVuSans-84"/>
     <use x="57.958984" xlink:href="#DejaVuSans-105"/>
     <use x="85.742188" xlink:href="#DejaVuSans-109"/>
     <use x="183.154297" xlink:href="#DejaVuSans-101"/>
     <use x="244.677734" xlink:href="#DejaVuSans-32"/>
     <use x="276.464844" xlink:href="#DejaVuSans-115"/>
     <use x="328.564453" xlink:href="#DejaVuSans-116"/>
     <use x="367.773438" xlink:href="#DejaVuSans-101"/>
     <use x="429.296875" xlink:href="#DejaVuSans-112"/>
     <use x="492.773438" xlink:href="#DejaVuSans-32"/>
     <use x="524.560547" xlink:href="#DejaVuSans-32"/>
     <use x="556.347656" xlink:href="#DejaVuSans-53"/>
     <use x="619.970703" xlink:href="#DejaVuSans-48"/>
    </g>
   </g>
  </g>
  <g id="axes_4">
   <g id="patch_17">
    <path d="M 72 640.8 
L 518.4 640.8 
L 518.4 520.278261 
L 72 520.278261 
z
" style="fill:#ffffff;"/>
   </g>
   <g id="PolyCollection_4">
    <defs>
     <path d="M 72 -76.789726 
L 72 -79.2 
L 76.509091 -79.2 
L 81.018182 -79.2 
L 85.527273 -79.2 
L 90.036364 -79.2 
L 94.545455 -79.2 
L 99.054545 -79.2 
L 103.563636 -79.2 
L 108.072727 -79.2 
L 112.581818 -79.2 
L 117.090909 -79.2 
L 121.6 -79.2 
L 126.109091 -79.2 
L 130.618182 -79.2 
L 135.127273 -79.2 
L 139.636364 -79.2 
L 144.145455 -79.2 
L 148.654545 -79.2 
L 153.163636 -79.2 
L 157.672727 -79.2 
L 162.181818 -79.2 
L 166.690909 -79.2 
L 171.2 -79.2 
L 175.709091 -79.2 
L 180.218182 -79.2 
L 184.727273 -79.2 
L 189.236364 -79.2 
L 193.745455 -79.2 
L 198.254545 -79.2 
L 202.763636 -79.2 
L 207.272727 -79.2 
L 211.781818 -79.2 
L 216.290909 -79.2 
L 220.8 -79.2 
L 225.309091 -79.2 
L 229.818182 -79.2 
L 234.327273 -79.2 
L 238.836364 -79.2 
L 243.345455 -79.2 
L 247.854545 -79.2 
L 252.363636 -79.2 
L 256.872727 -79.2 
L 261.381818 -79.2 
L 265.890909 -79.2 
L 270.4 -79.2 
L 274.909091 -79.2 
L 279.418182 -79.2 
L 283.927273 -79.2 
L 288.436364 -79.2 
L 292.945455 -79.2 
L 297.454545 -79.2 
L 301.963636 -79.2 
L 306.472727 -79.2 
L 310.981818 -79.2 
L 315.490909 -79.2 
L 320 -79.2 
L 324.509091 -79.2 
L 329.018182 -79.2 
L 333.527273 -79.2 
L 338.036364 -79.2 
L 342.545455 -79.2 
L 347.054545 -79.2 
L 351.563636 -79.2 
L 356.072727 -79.2 
L 360.581818 -79.2 
L 365.090909 -79.2 
L 369.6 -79.2 
L 374.109091 -79.2 
L 378.618182 -79.2 
L 383.127273 -79.2 
L 387.636364 -79.2 
L 392.145455 -79.2 
L 396.654545 -79.2 
L 401.163636 -79.2 
L 405.672727 -79.2 
L 410.181818 -79.2 
L 414.690909 -79.2 
L 419.2 -79.2 
L 423.709091 -79.2 
L 428.218182 -79.2 
L 432.727273 -79.2 
L 437.236364 -79.2 
L 441.745455 -79.2 
L 446.254545 -79.2 
L 450.763636 -79.2 
L 455.272727 -79.2 
L 459.781818 -79.2 
L 464.290909 -79.2 
L 468.8 -79.2 
L 473.309091 -79.2 
L 477.818182 -79.2 
L 482.327273 -79.2 
L 486.836364 -79.2 
L 491.345455 -79.2 
L 495.854545 -79.2 
L 500.363636 -79.2 
L 504.872727 -79.2 
L 509.381818 -79.2 
L 513.890909 -79.2 
L 518.4 -79.2 
L 518.4 -79.2 
L 518.4 -79.2 
L 513.890909 -76.789726 
L 509.381818 -69.568543 
L 504.872727 -57.623045 
L 500.363636 -41.287892 
L 495.854545 -21.418799 
L 491.345455 0.270187 
L 486.836364 20.892982 
L 482.327273 36.261737 
L 477.818182 41.175875 
L 473.309091 30.390105 
L 468.8 0.414413 
L 464.290909 -48.030733 
L 459.781818 -107.661833 
L 455.272727 -163.823878 
L 450.763636 -197.01363 
L 446.254545 -189.847453 
L 441.745455 -137.317838 
L 437.236364 -55.632391 
L 432.727273 17.90137 
L 428.218182 40.039176 
L 423.709091 -10.673789 
L 419.2 -109.626875 
L 414.690909 -189.463479 
L 410.181818 -183.525053 
L 405.672727 -146.986417 
L 401.163636 -28.329339 
L 396.654545 -107.163708 
L 392.145455 -80.097003 
L 387.636364 -44.848025 
L 383.127273 -148.304984 
L 378.618182 20.367778 
L 374.109091 -197.390916 
L 369.6 37.734092 
L 365.090909 -169.314719 
L 360.581818 -40.944664 
L 356.072727 -50.716856 
L 351.563636 -168.960235 
L 347.054545 40.844486 
L 342.545455 -179.173697 
L 338.036364 -48.608777 
L 333.527273 -20.895251 
L 329.018182 -195.538481 
L 324.509091 21.786851 
L 320 -92.652947 
L 315.490909 -166.470703 
L 310.981818 38.906486 
L 306.472727 -122.632747 
L 301.963636 -154.318113 
L 297.454545 39.293427 
L 292.945455 -110.821869 
L 288.436364 -173.315829 
L 283.927273 24.975101 
L 279.418182 -55.527391 
L 274.909091 -199.217569 
L 270.4 -38.927515 
L 265.890909 23.553355 
L 261.381818 -158.589723 
L 256.872727 -158.894619 
L 252.363636 17.951749 
L 247.854545 -12.741094 
L 243.345455 -180.349453 
L 238.836364 -147.814125 
L 234.327273 14.781983 
L 229.818182 6.180159 
L 225.309091 -150.471431 
L 220.8 -188.142139 
L 216.290909 -53.940536 
L 211.781818 41.107408 
L 207.272727 -35.567662 
L 202.763636 -169.710287 
L 198.254545 -187.260072 
L 193.745455 -75.830176 
L 189.236364 29.696372 
L 184.727273 19.088009 
L 180.218182 -87.193232 
L 175.709091 -183.525053 
L 171.2 -189.463479 
L 166.690909 -109.626875 
L 162.181818 -10.673789 
L 157.672727 40.039176 
L 153.163636 17.901377 
L 148.654545 -55.632388 
L 144.145455 -137.317834 
L 139.636364 -189.847453 
L 135.127273 -197.01363 
L 130.618182 -163.823878 
L 126.109091 -107.661837 
L 121.6 -48.030737 
L 117.090909 0.414413 
L 112.581818 30.390105 
L 108.072727 41.175875 
L 103.563636 36.261737 
L 99.054545 20.892982 
L 94.545455 0.270187 
L 90.036364 -21.418799 
L 85.527273 -41.287892 
L 81.018182 -57.623045 
L 76.509091 -69.568543 
L 72 -76.789726 
z
" id="m1acba13e25" style="stroke:#0000ff;stroke-opacity:0.4;"/>
    </defs>
    <g clip-path="url(#p735439dde8)">
     <use style="fill:#0000ff;fill-opacity:0.4;stroke:#0000ff;stroke-opacity:0.4;" x="0" xlink:href="#m1acba13e25" y="720"/>
    </g>
   </g>
   <g id="matplotlib.axis_7">
    <g id="xtick_13">
     <g id="line2d_58">
      <path clip-path="url(#p735439dde8)" d="M 180.218182 640.8 
L 180.218182 520.278261 
" style="fill:none;stroke:#b0b0b0;stroke-linecap:square;stroke-width:0.8;"/>
     </g>
     <g id="line2d_59">
      <g>
       <use style="stroke:#000000;stroke-width:0.8;" x="180.218182" xlink:href="#m3ad975fd98" y="640.8"/>
      </g>
     </g>
     <g id="text_22">
      <!-- 25 -->
      <g transform="translate(170.038182 659.9575)scale(0.16 -0.16)">
       <use xlink:href="#DejaVuSans-50"/>
       <use x="63.623047" xlink:href="#DejaVuSans-53"/>
      </g>
     </g>
    </g>
    <g id="xtick_14">
     <g id="line2d_60">
      <path clip-path="url(#p735439dde8)" d="M 292.945455 640.8 
L 292.945455 520.278261 
" style="fill:none;stroke:#b0b0b0;stroke-linecap:square;stroke-width:0.8;"/>
     </g>
     <g id="line2d_61">
      <g>
       <use style="stroke:#000000;stroke-width:0.8;" x="292.945455" xlink:href="#m3ad975fd98" y="640.8"/>
      </g>
     </g>
     <g id="text_23">
      <!-- 50 -->
      <g transform="translate(282.765455 659.9575)scale(0.16 -0.16)">
       <use xlink:href="#DejaVuSans-53"/>
       <use x="63.623047" xlink:href="#DejaVuSans-48"/>
      </g>
     </g>
    </g>
    <g id="xtick_15">
     <g id="line2d_62">
      <path clip-path="url(#p735439dde8)" d="M 405.672727 640.8 
L 405.672727 520.278261 
" style="fill:none;stroke:#b0b0b0;stroke-linecap:square;stroke-width:0.8;"/>
     </g>
     <g id="line2d_63">
      <g>
       <use style="stroke:#000000;stroke-width:0.8;" x="405.672727" xlink:href="#m3ad975fd98" y="640.8"/>
      </g>
     </g>
     <g id="text_24">
      <!-- 75 -->
      <g transform="translate(395.492727 659.9575)scale(0.16 -0.16)">
       <use xlink:href="#DejaVuSans-55"/>
       <use x="63.623047" xlink:href="#DejaVuSans-53"/>
      </g>
     </g>
    </g>
    <g id="xtick_16">
     <g id="line2d_64">
      <path clip-path="url(#p735439dde8)" d="M 518.4 640.8 
L 518.4 520.278261 
" style="fill:none;stroke:#b0b0b0;stroke-linecap:square;stroke-width:0.8;"/>
     </g>
     <g id="line2d_65">
      <g>
       <use style="stroke:#000000;stroke-width:0.8;" x="518.4" xlink:href="#m3ad975fd98" y="640.8"/>
      </g>
     </g>
     <g id="text_25">
      <!-- 100 -->
      <g transform="translate(503.13 659.9575)scale(0.16 -0.16)">
       <use xlink:href="#DejaVuSans-49"/>
       <use x="63.623047" xlink:href="#DejaVuSans-48"/>
       <use x="127.246094" xlink:href="#DejaVuSans-48"/>
      </g>
     </g>
    </g>
    <g id="text_26">
     <!-- Spatial grid index -->
     <g transform="translate(225.01375 679.4425)scale(0.16 -0.16)">
      <defs>
       <path d="M 53.515625 70.515625 
L 53.515625 60.890625 
Q 47.90625 63.578125 42.921875 64.890625 
Q 37.9375 66.21875 33.296875 66.21875 
Q 25.25 66.21875 20.875 63.09375 
Q 16.5 59.96875 16.5 54.203125 
Q 16.5 49.359375 19.40625 46.890625 
Q 22.3125 44.4375 30.421875 42.921875 
L 36.375 41.703125 
Q 47.40625 39.59375 52.65625 34.296875 
Q 57.90625 29 57.90625 20.125 
Q 57.90625 9.515625 50.796875 4.046875 
Q 43.703125 -1.421875 29.984375 -1.421875 
Q 24.8125 -1.421875 18.96875 -0.25 
Q 13.140625 0.921875 6.890625 3.21875 
L 6.890625 13.375 
Q 12.890625 10.015625 18.65625 8.296875 
Q 24.421875 6.59375 29.984375 6.59375 
Q 38.421875 6.59375 43.015625 9.90625 
Q 47.609375 13.234375 47.609375 19.390625 
Q 47.609375 24.75 44.3125 27.78125 
Q 41.015625 30.8125 33.5 32.328125 
L 27.484375 33.5 
Q 16.453125 35.6875 11.515625 40.375 
Q 6.59375 45.0625 6.59375 53.421875 
Q 6.59375 63.09375 13.40625 68.65625 
Q 20.21875 74.21875 32.171875 74.21875 
Q 37.3125 74.21875 42.625 73.28125 
Q 47.953125 72.359375 53.515625 70.515625 
z
" id="DejaVuSans-83"/>
       <path d="M 34.28125 27.484375 
Q 23.390625 27.484375 19.1875 25 
Q 14.984375 22.515625 14.984375 16.5 
Q 14.984375 11.71875 18.140625 8.90625 
Q 21.296875 6.109375 26.703125 6.109375 
Q 34.1875 6.109375 38.703125 11.40625 
Q 43.21875 16.703125 43.21875 25.484375 
L 43.21875 27.484375 
z
M 52.203125 31.203125 
L 52.203125 0 
L 43.21875 0 
L 43.21875 8.296875 
Q 40.140625 3.328125 35.546875 0.953125 
Q 30.953125 -1.421875 24.3125 -1.421875 
Q 15.921875 -1.421875 10.953125 3.296875 
Q 6 8.015625 6 15.921875 
Q 6 25.140625 12.171875 29.828125 
Q 18.359375 34.515625 30.609375 34.515625 
L 43.21875 34.515625 
L 43.21875 35.40625 
Q 43.21875 41.609375 39.140625 45 
Q 35.0625 48.390625 27.6875 48.390625 
Q 23 48.390625 18.546875 47.265625 
Q 14.109375 46.140625 10.015625 43.890625 
L 10.015625 52.203125 
Q 14.9375 54.109375 19.578125 55.046875 
Q 24.21875 56 28.609375 56 
Q 40.484375 56 46.34375 49.84375 
Q 52.203125 43.703125 52.203125 31.203125 
z
" id="DejaVuSans-97"/>
       <path d="M 9.421875 75.984375 
L 18.40625 75.984375 
L 18.40625 0 
L 9.421875 0 
z
" id="DejaVuSans-108"/>
       <path d="M 41.109375 46.296875 
Q 39.59375 47.171875 37.8125 47.578125 
Q 36.03125 48 33.890625 48 
Q 26.265625 48 22.1875 43.046875 
Q 18.109375 38.09375 18.109375 28.8125 
L 18.109375 0 
L 9.078125 0 
L 9.078125 54.6875 
L 18.109375 54.6875 
L 18.109375 46.1875 
Q 20.953125 51.171875 25.484375 53.578125 
Q 30.03125 56 36.53125 56 
Q 37.453125 56 38.578125 55.875 
Q 39.703125 55.765625 41.0625 55.515625 
z
" id="DejaVuSans-114"/>
       <path d="M 45.40625 46.390625 
L 45.40625 75.984375 
L 54.390625 75.984375 
L 54.390625 0 
L 45.40625 0 
L 45.40625 8.203125 
Q 42.578125 3.328125 38.25 0.953125 
Q 33.9375 -1.421875 27.875 -1.421875 
Q 17.96875 -1.421875 11.734375 6.484375 
Q 5.515625 14.40625 5.515625 27.296875 
Q 5.515625 40.1875 11.734375 48.09375 
Q 17.96875 56 27.875 56 
Q 33.9375 56 38.25 53.625 
Q 42.578125 51.265625 45.40625 46.390625 
z
M 14.796875 27.296875 
Q 14.796875 17.390625 18.875 11.75 
Q 22.953125 6.109375 30.078125 6.109375 
Q 37.203125 6.109375 41.296875 11.75 
Q 45.40625 17.390625 45.40625 27.296875 
Q 45.40625 37.203125 41.296875 42.84375 
Q 37.203125 48.484375 30.078125 48.484375 
Q 22.953125 48.484375 18.875 42.84375 
Q 14.796875 37.203125 14.796875 27.296875 
z
" id="DejaVuSans-100"/>
       <path d="M 54.890625 33.015625 
L 54.890625 0 
L 45.90625 0 
L 45.90625 32.71875 
Q 45.90625 40.484375 42.875 44.328125 
Q 39.84375 48.1875 33.796875 48.1875 
Q 26.515625 48.1875 22.3125 43.546875 
Q 18.109375 38.921875 18.109375 30.90625 
L 18.109375 0 
L 9.078125 0 
L 9.078125 54.6875 
L 18.109375 54.6875 
L 18.109375 46.1875 
Q 21.34375 51.125 25.703125 53.5625 
Q 30.078125 56 35.796875 56 
Q 45.21875 56 50.046875 50.171875 
Q 54.890625 44.34375 54.890625 33.015625 
z
" id="DejaVuSans-110"/>
       <path d="M 54.890625 54.6875 
L 35.109375 28.078125 
L 55.90625 0 
L 45.3125 0 
L 29.390625 21.484375 
L 13.484375 0 
L 2.875 0 
L 24.125 28.609375 
L 4.6875 54.6875 
L 15.28125 54.6875 
L 29.78125 35.203125 
L 44.28125 54.6875 
z
" id="DejaVuSans-120"/>
      </defs>
      <use xlink:href="#DejaVuSans-83"/>
      <use x="63.476562" xlink:href="#DejaVuSans-112"/>
      <use x="126.953125" xlink:href="#DejaVuSans-97"/>
      <use x="188.232422" xlink:href="#DejaVuSans-116"/>
      <use x="227.441406" xlink:href="#DejaVuSans-105"/>
      <use x="255.224609" xlink:href="#DejaVuSans-97"/>
      <use x="316.503906" xlink:href="#DejaVuSans-108"/>
      <use x="344.287109" xlink:href="#DejaVuSans-32"/>
      <use x="376.074219" xlink:href="#DejaVuSans-103"/>
      <use x="439.550781" xlink:href="#DejaVuSans-114"/>
      <use x="480.664062" xlink:href="#DejaVuSans-105"/>
      <use x="508.447266" xlink:href="#DejaVuSans-100"/>
      <use x="571.923828" xlink:href="#DejaVuSans-32"/>
      <use x="603.710938" xlink:href="#DejaVuSans-105"/>
      <use x="631.494141" xlink:href="#DejaVuSans-110"/>
      <use x="694.873047" xlink:href="#DejaVuSans-100"/>
      <use x="758.349609" xlink:href="#DejaVuSans-101"/>
      <use x="818.123047" xlink:href="#DejaVuSans-120"/>
     </g>
    </g>
   </g>
   <g id="matplotlib.axis_8">
    <g id="ytick_16">
     <g id="line2d_66">
      <path clip-path="url(#p735439dde8)" d="M 72 640.8 
L 518.4 640.8 
" style="fill:none;stroke:#b0b0b0;stroke-linecap:square;stroke-width:0.8;"/>
     </g>
     <g id="line2d_67">
      <g>
       <use style="stroke:#000000;stroke-width:0.8;" x="72" xlink:href="#mde6243a6fc" y="640.8"/>
      </g>
     </g>
     <g id="text_27">
      <!-- 0.00 -->
      <g transform="translate(29.375 646.87875)scale(0.16 -0.16)">
       <use xlink:href="#DejaVuSans-48"/>
       <use x="63.623047" xlink:href="#DejaVuSans-46"/>
       <use x="95.410156" xlink:href="#DejaVuSans-48"/>
       <use x="159.033203" xlink:href="#DejaVuSans-48"/>
      </g>
     </g>
    </g>
    <g id="ytick_17">
     <g id="line2d_68">
      <path clip-path="url(#p735439dde8)" d="M 72 610.669565 
L 518.4 610.669565 
" style="fill:none;stroke:#b0b0b0;stroke-linecap:square;stroke-width:0.8;"/>
     </g>
     <g id="line2d_69">
      <g>
       <use style="stroke:#000000;stroke-width:0.8;" x="72" xlink:href="#mde6243a6fc" y="610.669565"/>
      </g>
     </g>
     <g id="text_28">
      <!-- 0.25 -->
      <g transform="translate(29.375 616.748315)scale(0.16 -0.16)">
       <use xlink:href="#DejaVuSans-48"/>
       <use x="63.623047" xlink:href="#DejaVuSans-46"/>
       <use x="95.410156" xlink:href="#DejaVuSans-50"/>
       <use x="159.033203" xlink:href="#DejaVuSans-53"/>
      </g>
     </g>
    </g>
    <g id="ytick_18">
     <g id="line2d_70">
      <path clip-path="url(#p735439dde8)" d="M 72 580.53913 
L 518.4 580.53913 
" style="fill:none;stroke:#b0b0b0;stroke-linecap:square;stroke-width:0.8;"/>
     </g>
     <g id="line2d_71">
      <g>
       <use style="stroke:#000000;stroke-width:0.8;" x="72" xlink:href="#mde6243a6fc" y="580.53913"/>
      </g>
     </g>
     <g id="text_29">
      <!-- 0.50 -->
      <g transform="translate(29.375 586.61788)scale(0.16 -0.16)">
       <use xlink:href="#DejaVuSans-48"/>
       <use x="63.623047" xlink:href="#DejaVuSans-46"/>
       <use x="95.410156" xlink:href="#DejaVuSans-53"/>
       <use x="159.033203" xlink:href="#DejaVuSans-48"/>
      </g>
     </g>
    </g>
    <g id="ytick_19">
     <g id="line2d_72">
      <path clip-path="url(#p735439dde8)" d="M 72 550.408696 
L 518.4 550.408696 
" style="fill:none;stroke:#b0b0b0;stroke-linecap:square;stroke-width:0.8;"/>
     </g>
     <g id="line2d_73">
      <g>
       <use style="stroke:#000000;stroke-width:0.8;" x="72" xlink:href="#mde6243a6fc" y="550.408696"/>
      </g>
     </g>
     <g id="text_30">
      <!-- 0.75 -->
      <g transform="translate(29.375 556.487446)scale(0.16 -0.16)">
       <use xlink:href="#DejaVuSans-48"/>
       <use x="63.623047" xlink:href="#DejaVuSans-46"/>
       <use x="95.410156" xlink:href="#DejaVuSans-55"/>
       <use x="159.033203" xlink:href="#DejaVuSans-53"/>
      </g>
     </g>
    </g>
    <g id="ytick_20">
     <g id="line2d_74">
      <path clip-path="url(#p735439dde8)" d="M 72 520.278261 
L 518.4 520.278261 
" style="fill:none;stroke:#b0b0b0;stroke-linecap:square;stroke-width:0.8;"/>
     </g>
     <g id="line2d_75">
      <g>
       <use style="stroke:#000000;stroke-width:0.8;" x="72" xlink:href="#mde6243a6fc" y="520.278261"/>
      </g>
     </g>
     <g id="text_31">
      <!-- 1.00 -->
      <g transform="translate(29.375 526.357011)scale(0.16 -0.16)">
       <use xlink:href="#DejaVuSans-49"/>
       <use x="63.623047" xlink:href="#DejaVuSans-46"/>
       <use x="95.410156" xlink:href="#DejaVuSans-48"/>
       <use x="159.033203" xlink:href="#DejaVuSans-48"/>
      </g>
     </g>
    </g>
    <g id="text_32">
     <!-- Height -->
     <g transform="translate(22.0475 606.98538)rotate(-90)scale(0.16 -0.16)">
      <use xlink:href="#DejaVuSans-72"/>
      <use x="75.195312" xlink:href="#DejaVuSans-101"/>
      <use x="136.71875" xlink:href="#DejaVuSans-105"/>
      <use x="164.501953" xlink:href="#DejaVuSans-103"/>
      <use x="227.978516" xlink:href="#DejaVuSans-104"/>
      <use x="291.357422" xlink:href="#DejaVuSans-116"/>
     </g>
    </g>
   </g>
   <g id="line2d_76">
    <path clip-path="url(#p735439dde8)" d="M 72 643.210274 
L 76.509091 650.431457 
L 81.018182 662.376955 
L 85.527273 678.712108 
L 90.036364 698.581201 
L 94.545455 720.270187 
L 94.705025 721 
M 117.002822 721 
L 117.090909 720.414413 
L 121.6 671.969263 
L 126.109091 612.338163 
L 130.618182 556.176122 
L 135.127273 522.98637 
L 139.636364 530.152547 
L 144.145455 582.682166 
L 148.654545 664.367612 
L 152.127244 721 
M 161.143855 721 
L 162.181818 709.326211 
L 166.690909 610.373125 
L 171.2 530.536521 
L 175.709091 536.474947 
L 180.218182 632.806768 
L 183.95987 721 
M 190.462544 721 
L 193.745455 644.169824 
L 198.254545 532.739928 
L 202.763636 550.289713 
L 207.272727 684.432338 
L 209.42319 721 
M 213.684521 721 
L 216.290909 666.059464 
L 220.8 531.857861 
L 225.309091 569.528569 
L 229.669075 721 
M 234.709473 721 
L 238.836364 572.185875 
L 243.345455 539.650547 
L 247.854545 707.258906 
L 249.873252 721 
M 252.795859 721 
L 256.872727 561.105381 
L 261.381818 561.410277 
L 265.332584 721 
M 267.518529 721 
L 270.4 681.072485 
L 274.909091 520.782431 
L 279.418182 664.472609 
L 282.584384 721 
M 284.472461 721 
L 288.436364 546.684171 
L 292.945455 609.178131 
L 296.304306 721 
M 298.346375 721 
L 301.963636 565.681887 
L 306.472727 597.367253 
L 309.923724 721 
M 311.814061 721 
L 315.490909 553.529297 
L 320 627.347053 
L 323.690059 721 
M 324.940379 721 
L 329.018182 524.461519 
L 333.527273 699.104749 
L 338.036364 671.391223 
L 342.545455 540.826303 
L 346.237966 721 
M 347.910877 721 
L 351.563636 551.039765 
L 356.072727 669.283144 
L 360.581818 679.055336 
L 365.090909 550.685281 
L 368.800008 721 
M 370.304465 721 
L 374.109091 522.609084 
L 378.217137 721 
M 379.135936 721 
L 383.127273 571.695016 
L 387.636364 675.151975 
L 392.145455 639.902997 
L 396.654545 612.836292 
L 401.163636 691.670661 
L 405.672727 573.013583 
L 410.181818 536.474947 
L 414.690909 530.536521 
L 419.2 610.373125 
L 423.709091 709.326211 
L 424.747054 721 
M 433.763665 721 
L 437.236364 664.367609 
L 441.745455 582.682162 
L 446.254545 530.152547 
L 450.763636 522.98637 
L 455.272727 556.176122 
L 459.781818 612.338167 
L 464.290909 671.969267 
L 468.8 720.414413 
L 468.888087 721 
M 491.185884 721 
L 491.345455 720.270187 
L 495.854545 698.581201 
L 500.363636 678.712108 
L 504.872727 662.376955 
L 509.381818 650.431457 
L 513.890909 643.210274 
L 518.4 640.8 
" style="fill:none;stroke:#0000ff;stroke-linecap:square;stroke-width:1.5;"/>
   </g>
   <g id="patch_18">
    <path d="M 72 640.8 
L 72 520.278261 
" style="fill:none;stroke:#000000;stroke-linecap:square;stroke-linejoin:miter;stroke-width:0.8;"/>
   </g>
   <g id="patch_19">
    <path d="M 518.4 640.8 
L 518.4 520.278261 
" style="fill:none;stroke:#000000;stroke-linecap:square;stroke-linejoin:miter;stroke-width:0.8;"/>
   </g>
   <g id="patch_20">
    <path d="M 72 640.8 
L 518.4 640.8 
" style="fill:none;stroke:#000000;stroke-linecap:square;stroke-linejoin:miter;stroke-width:0.8;"/>
   </g>
   <g id="patch_21">
    <path d="M 72 520.278261 
L 518.4 520.278261 
" style="fill:none;stroke:#000000;stroke-linecap:square;stroke-linejoin:miter;stroke-width:0.8;"/>
   </g>
   <g id="text_33">
    <!-- Time step  75 -->
    <g transform="translate(229.5765 514.278261)scale(0.192 -0.192)">
     <use xlink:href="#DejaVuSans-84"/>
     <use x="57.958984" xlink:href="#DejaVuSans-105"/>
     <use x="85.742188" xlink:href="#DejaVuSans-109"/>
     <use x="183.154297" xlink:href="#DejaVuSans-101"/>
     <use x="244.677734" xlink:href="#DejaVuSans-32"/>
     <use x="276.464844" xlink:href="#DejaVuSans-115"/>
     <use x="328.564453" xlink:href="#DejaVuSans-116"/>
     <use x="367.773438" xlink:href="#DejaVuSans-101"/>
     <use x="429.296875" xlink:href="#DejaVuSans-112"/>
     <use x="492.773438" xlink:href="#DejaVuSans-32"/>
     <use x="524.560547" xlink:href="#DejaVuSans-32"/>
     <use x="556.347656" xlink:href="#DejaVuSans-55"/>
     <use x="619.970703" xlink:href="#DejaVuSans-53"/>
    </g>
   </g>
  </g>
 </g>
 <defs>
  <clipPath id="p210783f934">
   <rect height="120.521739" width="446.4" x="72" y="86.4"/>
  </clipPath>
  <clipPath id="pc1740a6c67">
   <rect height="120.521739" width="446.4" x="72" y="231.026087"/>
  </clipPath>
  <clipPath id="pfd15f0e5a5">
   <rect height="120.521739" width="446.4" x="72" y="375.652174"/>
  </clipPath>
  <clipPath id="p735439dde8">
   <rect height="120.521739" width="446.4" x="72" y="520.278261"/>
  </clipPath>
 </defs>
</svg>
